<?xml version="1.0" encoding="UTF-8"?>
<svg width="1620px" height="87px" viewBox="0 0 1620 87" version="1.1" xmlns="http://www.w3.org/2000/svg" xmlns:xlink="http://www.w3.org/1999/xlink">
    <!-- Generator: sketchtool 48.2 (47327) - http://www.bohemiancoding.com/sketch -->
    <title>3B92AF45-34A7-4123-AB51-050A144021CF</title>
    <desc>Created with sketchtool.</desc>
    <defs>
        <rect id="path-1" x="0" y="80" width="1620" height="6.5"></rect>
    </defs>
    <g id="SiteHeader" stroke="none" stroke-width="1" fill="none" fill-rule="evenodd" transform="translate(207.000000, -159.000000)">
        <g id="background-buildings" transform="translate(-207.000000, 159.000000)">
            <g id="Graphics/Buildings/building_bg_green">
                <rect id="Rectangle" fill="#F8C6A8" x="0" y="80.943038" width="31.5286624" height="3.85443038"></rect>
                <rect id="Rectangle" fill="#F8C6A8" x="33.4203822" y="80.943038" width="31.5286624" height="3.85443038"></rect>
                <rect id="Rectangle" fill="#F8C6A8" x="66.2101911" y="80.943038" width="31.5286624" height="3.85443038"></rect>
                <rect id="Rectangle" fill="#F8C6A8" x="99.6305732" y="80.943038" width="31.5286624" height="3.85443038"></rect>
                <rect id="Rectangle" fill="#F8C6A8" x="132.420382" y="80.943038" width="31.5286624" height="3.85443038"></rect>
                <rect id="Rectangle" fill="#F8C6A8" x="165.840764" y="80.943038" width="31.5286624" height="3.85443038"></rect>
                <rect id="Rectangle" fill="#F8C6A8" x="198.630573" y="80.943038" width="31.5286624" height="3.85443038"></rect>
                <rect id="Rectangle" fill="#F8C6A8" x="232.050955" y="80.943038" width="31.5286624" height="3.85443038"></rect>
                <rect id="Rectangle" fill="#F8C6A8" x="264.840764" y="80.943038" width="31.5286624" height="3.85443038"></rect>
                <polygon id="Rectangle-6" fill="#D7F8EF" points="0 60.5696203 6.29757683 60.5696203 6.30573248 29.1835443 20.8089172 29.1835443 20.8089172 18.721519 38.4649682 18.721519 38.4649682 60.9990129 105.936306 60.5696203 105.936306 34.6898734 116.656051 31.3860759 126.745223 34.6898734 140.617834 34.6898734 140.617834 60.5696203 145.66242 60.5696203 145.66242 1.65189873 163.318471 1.65189873 163.318471 2.84217094e-14 169.855928 2.84217094e-14 172.663684 1.65189873 176.56051 1.65189873 176.56051 41.2974684 189.171975 41.2974684 189.171975 30.2848101 227.636943 33.0379747 227.636943 60.5696203 228.898089 60.5696203 228.898089 39.6455696 233.312102 39.6455696 233.312102 20.9240506 271.775438 20.9240506 271.775438 25.8797468 279.343949 25.8797468 279.603568 15.6854605 279.974522 25.8797468 285.649682 25.8797468 285.649682 60.5696203 296.383889 60.5696203 296.383889 79.8417722 0 79.8417722"></polygon>
                <rect id="Rectangle" fill="#D7F8EF" x="0" y="80.943038" width="31.5286624" height="3.85443038"></rect>
                <rect id="Rectangle" fill="#D7F8EF" x="33.4203822" y="80.943038" width="31.5286624" height="3.85443038"></rect>
                <rect id="Rectangle" fill="#D7F8EF" x="66.2101911" y="80.943038" width="31.5286624" height="3.85443038"></rect>
                <rect id="Rectangle" fill="#D7F8EF" x="99.6305732" y="80.943038" width="31.5286624" height="3.85443038"></rect>
                <rect id="Rectangle" fill="#D7F8EF" x="132.420382" y="80.943038" width="31.5286624" height="3.85443038"></rect>
                <rect id="Rectangle" fill="#D7F8EF" x="165.840764" y="80.943038" width="31.5286624" height="3.85443038"></rect>
                <rect id="Rectangle" fill="#D7F8EF" x="198.630573" y="80.943038" width="31.5286624" height="3.85443038"></rect>
                <rect id="Rectangle" fill="#D7F8EF" x="232.050955" y="80.943038" width="31.5286624" height="3.85443038"></rect>
                <rect id="Rectangle" fill="#D7F8EF" x="264.840764" y="80.943038" width="31.5286624" height="3.85443038"></rect>
                <ellipse id="Oval" fill="#D7F8EF" cx="72.7514825" cy="53.586428" rx="7.64298265" ry="6.65135384"></ellipse>
                <ellipse id="Oval" fill="#D7F8EF" cx="78.1149791" cy="55.9202364" rx="7.64298265" ry="6.65135384"></ellipse>
                <ellipse id="Oval" fill="#D7F8EF" cx="80.7967274" cy="48.9188113" rx="4.96123435" ry="4.31754548"></ellipse>
                <ellipse id="Oval" fill="#D7F8EF" cx="67.3879859" cy="55.9202364" rx="4.96123435" ry="4.31754548"></ellipse>
                <rect id="Rectangle-6" fill="#D7F8EF" x="73.6900944" y="53.4697376" width="2.94992313" height="26.3720345"></rect>
                <ellipse id="Oval" fill="#D7F8EF" transform="translate(93.491544, 59.847598) scale(-1, 1) translate(-93.491544, -59.847598) " cx="93.491544" cy="59.8475983" rx="4.54447617" ry="3.94924134"></ellipse>
                <ellipse id="Oval" fill="#D7F8EF" transform="translate(90.302438, 61.233297) scale(-1, 1) translate(-90.302438, -61.233297) " cx="90.302438" cy="61.233297" rx="4.54447617" ry="3.94924134"></ellipse>
                <ellipse id="Oval" fill="#D7F8EF" transform="translate(88.707885, 57.076201) scale(-1, 1) translate(-88.707885, -57.076201) " cx="88.7078849" cy="57.0762009" rx="2.94992313" ry="2.56354263"></ellipse>
                <ellipse id="Oval" fill="#D7F8EF" transform="translate(96.680650, 61.233297) scale(-1, 1) translate(-96.680650, -61.233297) " cx="96.6806501" cy="61.233297" rx="2.94992313" ry="2.56354263"></ellipse>
                <rect id="Rectangle-6" fill="#D7F8EF" transform="translate(92.056446, 67.607511) scale(-1, 1) translate(-92.056446, -67.607511) " x="91.1794421" y="59.7783134" width="1.75400835" height="15.6583955"></rect>
                <ellipse id="Oval" fill="#D7F8EF" cx="48.8621788" cy="57.0132598" rx="7.22984845" ry="6.35503191"></ellipse>
                <ellipse id="Oval" fill="#D7F8EF" cx="53.9357566" cy="59.2430955" rx="7.22984845" ry="6.35503191"></ellipse>
                <ellipse id="Oval" fill="#D7F8EF" cx="48.1011421" cy="63.4797835" rx="4.69305952" ry="4.12519615"></ellipse>
                <ellipse id="Oval" fill="#D7F8EF" cx="43.7886009" cy="59.2430955" rx="4.69305952" ry="4.12519615"></ellipse>
                <rect id="Rectangle-6" fill="#D7F8EF" x="50.0037338" y="54.6719322" width="2.02943114" height="22.9673083"></rect>
                <ellipse id="Oval" fill="#D7F8EF" cx="146.466945" cy="59.9598284" rx="6.19701296" ry="5.44717021"></ellipse>
                <ellipse id="Oval" fill="#D7F8EF" cx="150.815726" cy="61.8711162" rx="6.19701296" ry="5.44717021"></ellipse>
                <ellipse id="Oval" fill="#D7F8EF" cx="145.814628" cy="65.502563" rx="4.02262245" ry="3.53588241"></ellipse>
                <ellipse id="Oval" fill="#D7F8EF" cx="142.118164" cy="61.8711162" rx="4.02262245" ry="3.53588241"></ellipse>
                <rect id="Rectangle-6" fill="#D7F8EF" x="147.445421" y="57.9529763" width="1.73951241" height="19.6862643"></rect>
            </g>
            <g id="Graphics/Buildings/building_bg_green" transform="translate(289.000000, 0.000000)">
                <rect id="Rectangle" fill="#F8C6A8" x="0" y="80.943038" width="31.5286624" height="3.85443038"></rect>
                <rect id="Rectangle" fill="#F8C6A8" x="33.4203822" y="80.943038" width="31.5286624" height="3.85443038"></rect>
                <rect id="Rectangle" fill="#F8C6A8" x="66.2101911" y="80.943038" width="31.5286624" height="3.85443038"></rect>
                <rect id="Rectangle" fill="#F8C6A8" x="99.6305732" y="80.943038" width="31.5286624" height="3.85443038"></rect>
                <rect id="Rectangle" fill="#F8C6A8" x="132.420382" y="80.943038" width="31.5286624" height="3.85443038"></rect>
                <rect id="Rectangle" fill="#F8C6A8" x="165.840764" y="80.943038" width="31.5286624" height="3.85443038"></rect>
                <rect id="Rectangle" fill="#F8C6A8" x="198.630573" y="80.943038" width="31.5286624" height="3.85443038"></rect>
                <rect id="Rectangle" fill="#F8C6A8" x="232.050955" y="80.943038" width="31.5286624" height="3.85443038"></rect>
                <rect id="Rectangle" fill="#F8C6A8" x="264.840764" y="80.943038" width="31.5286624" height="3.85443038"></rect>
                <polygon id="Rectangle-6" fill="#D7F8EF" points="0 60.5696203 6.29757683 60.5696203 6.30573248 29.1835443 20.8089172 29.1835443 20.8089172 18.721519 38.4649682 18.721519 38.4649682 60.9990129 105.936306 60.5696203 105.936306 34.6898734 116.656051 31.3860759 126.745223 34.6898734 140.617834 34.6898734 140.617834 60.5696203 145.66242 60.5696203 145.66242 1.65189873 163.318471 1.65189873 163.318471 2.84217094e-14 169.855928 2.84217094e-14 172.663684 1.65189873 176.56051 1.65189873 176.56051 41.2974684 189.171975 41.2974684 189.171975 30.2848101 227.636943 33.0379747 227.636943 60.5696203 228.898089 60.5696203 228.898089 39.6455696 233.312102 39.6455696 233.312102 20.9240506 271.775438 20.9240506 271.775438 25.8797468 279.343949 25.8797468 279.603568 15.6854605 279.974522 25.8797468 285.649682 25.8797468 285.649682 60.5696203 296.383889 60.5696203 296.383889 79.8417722 0 79.8417722"></polygon>
                <rect id="Rectangle" fill="#D7F8EF" x="0" y="80.943038" width="31.5286624" height="3.85443038"></rect>
                <rect id="Rectangle" fill="#D7F8EF" x="33.4203822" y="80.943038" width="31.5286624" height="3.85443038"></rect>
                <rect id="Rectangle" fill="#D7F8EF" x="66.2101911" y="80.943038" width="31.5286624" height="3.85443038"></rect>
                <rect id="Rectangle" fill="#D7F8EF" x="99.6305732" y="80.943038" width="31.5286624" height="3.85443038"></rect>
                <rect id="Rectangle" fill="#D7F8EF" x="132.420382" y="80.943038" width="31.5286624" height="3.85443038"></rect>
                <rect id="Rectangle" fill="#D7F8EF" x="165.840764" y="80.943038" width="31.5286624" height="3.85443038"></rect>
                <rect id="Rectangle" fill="#D7F8EF" x="198.630573" y="80.943038" width="31.5286624" height="3.85443038"></rect>
                <rect id="Rectangle" fill="#D7F8EF" x="232.050955" y="80.943038" width="31.5286624" height="3.85443038"></rect>
                <rect id="Rectangle" fill="#D7F8EF" x="264.840764" y="80.943038" width="31.5286624" height="3.85443038"></rect>
                <ellipse id="Oval" fill="#D7F8EF" cx="72.7514825" cy="53.586428" rx="7.64298265" ry="6.65135384"></ellipse>
                <ellipse id="Oval" fill="#D7F8EF" cx="78.1149791" cy="55.9202364" rx="7.64298265" ry="6.65135384"></ellipse>
                <ellipse id="Oval" fill="#D7F8EF" cx="80.7967274" cy="48.9188113" rx="4.96123435" ry="4.31754548"></ellipse>
                <ellipse id="Oval" fill="#D7F8EF" cx="67.3879859" cy="55.9202364" rx="4.96123435" ry="4.31754548"></ellipse>
                <rect id="Rectangle-6" fill="#D7F8EF" x="73.6900944" y="53.4697376" width="2.94992313" height="26.3720345"></rect>
                <ellipse id="Oval" fill="#D7F8EF" transform="translate(93.491544, 59.847598) scale(-1, 1) translate(-93.491544, -59.847598) " cx="93.491544" cy="59.8475983" rx="4.54447617" ry="3.94924134"></ellipse>
                <ellipse id="Oval" fill="#D7F8EF" transform="translate(90.302438, 61.233297) scale(-1, 1) translate(-90.302438, -61.233297) " cx="90.302438" cy="61.233297" rx="4.54447617" ry="3.94924134"></ellipse>
                <ellipse id="Oval" fill="#D7F8EF" transform="translate(88.707885, 57.076201) scale(-1, 1) translate(-88.707885, -57.076201) " cx="88.7078849" cy="57.0762009" rx="2.94992313" ry="2.56354263"></ellipse>
                <ellipse id="Oval" fill="#D7F8EF" transform="translate(96.680650, 61.233297) scale(-1, 1) translate(-96.680650, -61.233297) " cx="96.6806501" cy="61.233297" rx="2.94992313" ry="2.56354263"></ellipse>
                <rect id="Rectangle-6" fill="#D7F8EF" transform="translate(92.056446, 67.607511) scale(-1, 1) translate(-92.056446, -67.607511) " x="91.1794421" y="59.7783134" width="1.75400835" height="15.6583955"></rect>
                <ellipse id="Oval" fill="#D7F8EF" cx="48.8621788" cy="57.0132598" rx="7.22984845" ry="6.35503191"></ellipse>
                <ellipse id="Oval" fill="#D7F8EF" cx="53.9357566" cy="59.2430955" rx="7.22984845" ry="6.35503191"></ellipse>
                <ellipse id="Oval" fill="#D7F8EF" cx="48.1011421" cy="63.4797835" rx="4.69305952" ry="4.12519615"></ellipse>
                <ellipse id="Oval" fill="#D7F8EF" cx="43.7886009" cy="59.2430955" rx="4.69305952" ry="4.12519615"></ellipse>
                <rect id="Rectangle-6" fill="#D7F8EF" x="50.0037338" y="54.6719322" width="2.02943114" height="22.9673083"></rect>
                <ellipse id="Oval" fill="#D7F8EF" cx="146.466945" cy="59.9598284" rx="6.19701296" ry="5.44717021"></ellipse>
                <ellipse id="Oval" fill="#D7F8EF" cx="150.815726" cy="61.8711162" rx="6.19701296" ry="5.44717021"></ellipse>
                <ellipse id="Oval" fill="#D7F8EF" cx="145.814628" cy="65.502563" rx="4.02262245" ry="3.53588241"></ellipse>
                <ellipse id="Oval" fill="#D7F8EF" cx="142.118164" cy="61.8711162" rx="4.02262245" ry="3.53588241"></ellipse>
                <rect id="Rectangle-6" fill="#D7F8EF" x="147.445421" y="57.9529763" width="1.73951241" height="19.6862643"></rect>
            </g>
            <g id="Graphics/Buildings/building_bg_green" transform="translate(665.500000, 43.500000) scale(-1, 1) translate(-665.500000, -43.500000) translate(517.000000, 0.000000)">
                <rect id="Rectangle" fill="#F8C6A8" x="0" y="80.943038" width="31.5286624" height="3.85443038"></rect>
                <rect id="Rectangle" fill="#F8C6A8" x="33.4203822" y="80.943038" width="31.5286624" height="3.85443038"></rect>
                <rect id="Rectangle" fill="#F8C6A8" x="66.2101911" y="80.943038" width="31.5286624" height="3.85443038"></rect>
                <rect id="Rectangle" fill="#F8C6A8" x="99.6305732" y="80.943038" width="31.5286624" height="3.85443038"></rect>
                <rect id="Rectangle" fill="#F8C6A8" x="132.420382" y="80.943038" width="31.5286624" height="3.85443038"></rect>
                <rect id="Rectangle" fill="#F8C6A8" x="165.840764" y="80.943038" width="31.5286624" height="3.85443038"></rect>
                <rect id="Rectangle" fill="#F8C6A8" x="198.630573" y="80.943038" width="31.5286624" height="3.85443038"></rect>
                <rect id="Rectangle" fill="#F8C6A8" x="232.050955" y="80.943038" width="31.5286624" height="3.85443038"></rect>
                <rect id="Rectangle" fill="#F8C6A8" x="264.840764" y="80.943038" width="31.5286624" height="3.85443038"></rect>
                <polygon id="Rectangle-6" fill="#D7F8EF" points="0 60.5696203 6.29757683 60.5696203 6.30573248 29.1835443 20.8089172 29.1835443 20.8089172 18.721519 38.4649682 18.721519 38.4649682 60.9990129 105.936306 60.5696203 105.936306 34.6898734 116.656051 31.3860759 126.745223 34.6898734 140.617834 34.6898734 140.617834 60.5696203 145.66242 60.5696203 145.66242 1.65189873 163.318471 1.65189873 163.318471 2.84217094e-14 169.855928 2.84217094e-14 172.663684 1.65189873 176.56051 1.65189873 176.56051 41.2974684 189.171975 41.2974684 189.171975 30.2848101 227.636943 33.0379747 227.636943 60.5696203 228.898089 60.5696203 228.898089 39.6455696 233.312102 39.6455696 233.312102 20.9240506 271.775438 20.9240506 271.775438 25.8797468 279.343949 25.8797468 279.603568 15.6854605 279.974522 25.8797468 285.649682 25.8797468 285.649682 60.5696203 296.383889 60.5696203 296.383889 79.8417722 0 79.8417722"></polygon>
                <rect id="Rectangle" fill="#D7F8EF" x="0" y="80.943038" width="31.5286624" height="3.85443038"></rect>
                <rect id="Rectangle" fill="#D7F8EF" x="33.4203822" y="80.943038" width="31.5286624" height="3.85443038"></rect>
                <rect id="Rectangle" fill="#D7F8EF" x="66.2101911" y="80.943038" width="31.5286624" height="3.85443038"></rect>
                <rect id="Rectangle" fill="#D7F8EF" x="99.6305732" y="80.943038" width="31.5286624" height="3.85443038"></rect>
                <rect id="Rectangle" fill="#D7F8EF" x="132.420382" y="80.943038" width="31.5286624" height="3.85443038"></rect>
                <rect id="Rectangle" fill="#D7F8EF" x="165.840764" y="80.943038" width="31.5286624" height="3.85443038"></rect>
                <rect id="Rectangle" fill="#D7F8EF" x="198.630573" y="80.943038" width="31.5286624" height="3.85443038"></rect>
                <rect id="Rectangle" fill="#D7F8EF" x="232.050955" y="80.943038" width="31.5286624" height="3.85443038"></rect>
                <rect id="Rectangle" fill="#D7F8EF" x="264.840764" y="80.943038" width="31.5286624" height="3.85443038"></rect>
                <ellipse id="Oval" fill="#D7F8EF" cx="72.7514825" cy="53.586428" rx="7.64298265" ry="6.65135384"></ellipse>
                <ellipse id="Oval" fill="#D7F8EF" cx="78.1149791" cy="55.9202364" rx="7.64298265" ry="6.65135384"></ellipse>
                <ellipse id="Oval" fill="#D7F8EF" cx="80.7967274" cy="48.9188113" rx="4.96123435" ry="4.31754548"></ellipse>
                <ellipse id="Oval" fill="#D7F8EF" cx="67.3879859" cy="55.9202364" rx="4.96123435" ry="4.31754548"></ellipse>
                <rect id="Rectangle-6" fill="#D7F8EF" x="73.6900944" y="53.4697376" width="2.94992313" height="26.3720345"></rect>
                <ellipse id="Oval" fill="#D7F8EF" transform="translate(93.491544, 59.847598) scale(-1, 1) translate(-93.491544, -59.847598) " cx="93.491544" cy="59.8475983" rx="4.54447617" ry="3.94924134"></ellipse>
                <ellipse id="Oval" fill="#D7F8EF" transform="translate(90.302438, 61.233297) scale(-1, 1) translate(-90.302438, -61.233297) " cx="90.302438" cy="61.233297" rx="4.54447617" ry="3.94924134"></ellipse>
                <ellipse id="Oval" fill="#D7F8EF" transform="translate(88.707885, 57.076201) scale(-1, 1) translate(-88.707885, -57.076201) " cx="88.7078849" cy="57.0762009" rx="2.94992313" ry="2.56354263"></ellipse>
                <ellipse id="Oval" fill="#D7F8EF" transform="translate(96.680650, 61.233297) scale(-1, 1) translate(-96.680650, -61.233297) " cx="96.6806501" cy="61.233297" rx="2.94992313" ry="2.56354263"></ellipse>
                <rect id="Rectangle-6" fill="#D7F8EF" transform="translate(92.056446, 67.607511) scale(-1, 1) translate(-92.056446, -67.607511) " x="91.1794421" y="59.7783134" width="1.75400835" height="15.6583955"></rect>
                <ellipse id="Oval" fill="#D7F8EF" cx="48.8621788" cy="57.0132598" rx="7.22984845" ry="6.35503191"></ellipse>
                <ellipse id="Oval" fill="#D7F8EF" cx="53.9357566" cy="59.2430955" rx="7.22984845" ry="6.35503191"></ellipse>
                <ellipse id="Oval" fill="#D7F8EF" cx="48.1011421" cy="63.4797835" rx="4.69305952" ry="4.12519615"></ellipse>
                <ellipse id="Oval" fill="#D7F8EF" cx="43.7886009" cy="59.2430955" rx="4.69305952" ry="4.12519615"></ellipse>
                <rect id="Rectangle-6" fill="#D7F8EF" x="50.0037338" y="54.6719322" width="2.02943114" height="22.9673083"></rect>
                <ellipse id="Oval" fill="#D7F8EF" cx="146.466945" cy="59.9598284" rx="6.19701296" ry="5.44717021"></ellipse>
                <ellipse id="Oval" fill="#D7F8EF" cx="150.815726" cy="61.8711162" rx="6.19701296" ry="5.44717021"></ellipse>
                <ellipse id="Oval" fill="#D7F8EF" cx="145.814628" cy="65.502563" rx="4.02262245" ry="3.53588241"></ellipse>
                <ellipse id="Oval" fill="#D7F8EF" cx="142.118164" cy="61.8711162" rx="4.02262245" ry="3.53588241"></ellipse>
                <rect id="Rectangle-6" fill="#D7F8EF" x="147.445421" y="57.9529763" width="1.73951241" height="19.6862643"></rect>
            </g>
            <g id="Graphics/Buildings/building_bg_green" transform="translate(940.500000, 43.500000) scale(-1, 1) translate(-940.500000, -43.500000) translate(792.000000, 0.000000)">
                <rect id="Rectangle" fill="#F8C6A8" x="0" y="80.943038" width="31.5286624" height="3.85443038"></rect>
                <rect id="Rectangle" fill="#F8C6A8" x="33.4203822" y="80.943038" width="31.5286624" height="3.85443038"></rect>
                <rect id="Rectangle" fill="#F8C6A8" x="66.2101911" y="80.943038" width="31.5286624" height="3.85443038"></rect>
                <rect id="Rectangle" fill="#F8C6A8" x="99.6305732" y="80.943038" width="31.5286624" height="3.85443038"></rect>
                <rect id="Rectangle" fill="#F8C6A8" x="132.420382" y="80.943038" width="31.5286624" height="3.85443038"></rect>
                <rect id="Rectangle" fill="#F8C6A8" x="165.840764" y="80.943038" width="31.5286624" height="3.85443038"></rect>
                <rect id="Rectangle" fill="#F8C6A8" x="198.630573" y="80.943038" width="31.5286624" height="3.85443038"></rect>
                <rect id="Rectangle" fill="#F8C6A8" x="232.050955" y="80.943038" width="31.5286624" height="3.85443038"></rect>
                <rect id="Rectangle" fill="#F8C6A8" x="264.840764" y="80.943038" width="31.5286624" height="3.85443038"></rect>
                <polygon id="Rectangle-6" fill="#D7F8EF" points="0 60.5696203 6.29757683 60.5696203 6.30573248 29.1835443 20.8089172 29.1835443 20.8089172 18.721519 38.4649682 18.721519 38.4649682 60.9990129 105.936306 60.5696203 105.936306 34.6898734 116.656051 31.3860759 126.745223 34.6898734 140.617834 34.6898734 140.617834 60.5696203 145.66242 60.5696203 145.66242 1.65189873 163.318471 1.65189873 163.318471 2.84217094e-14 169.855928 2.84217094e-14 172.663684 1.65189873 176.56051 1.65189873 176.56051 41.2974684 189.171975 41.2974684 189.171975 30.2848101 227.636943 33.0379747 227.636943 60.5696203 228.898089 60.5696203 228.898089 39.6455696 233.312102 39.6455696 233.312102 20.9240506 271.775438 20.9240506 271.775438 25.8797468 279.343949 25.8797468 279.603568 15.6854605 279.974522 25.8797468 285.649682 25.8797468 285.649682 60.5696203 296.383889 60.5696203 296.383889 79.8417722 0 79.8417722"></polygon>
                <rect id="Rectangle" fill="#D7F8EF" x="0" y="80.943038" width="31.5286624" height="3.85443038"></rect>
                <rect id="Rectangle" fill="#D7F8EF" x="33.4203822" y="80.943038" width="31.5286624" height="3.85443038"></rect>
                <rect id="Rectangle" fill="#D7F8EF" x="66.2101911" y="80.943038" width="31.5286624" height="3.85443038"></rect>
                <rect id="Rectangle" fill="#D7F8EF" x="99.6305732" y="80.943038" width="31.5286624" height="3.85443038"></rect>
                <rect id="Rectangle" fill="#D7F8EF" x="132.420382" y="80.943038" width="31.5286624" height="3.85443038"></rect>
                <rect id="Rectangle" fill="#D7F8EF" x="165.840764" y="80.943038" width="31.5286624" height="3.85443038"></rect>
                <rect id="Rectangle" fill="#D7F8EF" x="198.630573" y="80.943038" width="31.5286624" height="3.85443038"></rect>
                <rect id="Rectangle" fill="#D7F8EF" x="232.050955" y="80.943038" width="31.5286624" height="3.85443038"></rect>
                <rect id="Rectangle" fill="#D7F8EF" x="264.840764" y="80.943038" width="31.5286624" height="3.85443038"></rect>
                <ellipse id="Oval" fill="#D7F8EF" cx="72.7514825" cy="53.586428" rx="7.64298265" ry="6.65135384"></ellipse>
                <ellipse id="Oval" fill="#D7F8EF" cx="78.1149791" cy="55.9202364" rx="7.64298265" ry="6.65135384"></ellipse>
                <ellipse id="Oval" fill="#D7F8EF" cx="80.7967274" cy="48.9188113" rx="4.96123435" ry="4.31754548"></ellipse>
                <ellipse id="Oval" fill="#D7F8EF" cx="67.3879859" cy="55.9202364" rx="4.96123435" ry="4.31754548"></ellipse>
                <rect id="Rectangle-6" fill="#D7F8EF" x="73.6900944" y="53.4697376" width="2.94992313" height="26.3720345"></rect>
                <ellipse id="Oval" fill="#D7F8EF" transform="translate(93.491544, 59.847598) scale(-1, 1) translate(-93.491544, -59.847598) " cx="93.491544" cy="59.8475983" rx="4.54447617" ry="3.94924134"></ellipse>
                <ellipse id="Oval" fill="#D7F8EF" transform="translate(90.302438, 61.233297) scale(-1, 1) translate(-90.302438, -61.233297) " cx="90.302438" cy="61.233297" rx="4.54447617" ry="3.94924134"></ellipse>
                <ellipse id="Oval" fill="#D7F8EF" transform="translate(88.707885, 57.076201) scale(-1, 1) translate(-88.707885, -57.076201) " cx="88.7078849" cy="57.0762009" rx="2.94992313" ry="2.56354263"></ellipse>
                <ellipse id="Oval" fill="#D7F8EF" transform="translate(96.680650, 61.233297) scale(-1, 1) translate(-96.680650, -61.233297) " cx="96.6806501" cy="61.233297" rx="2.94992313" ry="2.56354263"></ellipse>
                <rect id="Rectangle-6" fill="#D7F8EF" transform="translate(92.056446, 67.607511) scale(-1, 1) translate(-92.056446, -67.607511) " x="91.1794421" y="59.7783134" width="1.75400835" height="15.6583955"></rect>
                <ellipse id="Oval" fill="#D7F8EF" cx="48.8621788" cy="57.0132598" rx="7.22984845" ry="6.35503191"></ellipse>
                <ellipse id="Oval" fill="#D7F8EF" cx="53.9357566" cy="59.2430955" rx="7.22984845" ry="6.35503191"></ellipse>
                <ellipse id="Oval" fill="#D7F8EF" cx="48.1011421" cy="63.4797835" rx="4.69305952" ry="4.12519615"></ellipse>
                <ellipse id="Oval" fill="#D7F8EF" cx="43.7886009" cy="59.2430955" rx="4.69305952" ry="4.12519615"></ellipse>
                <rect id="Rectangle-6" fill="#D7F8EF" x="50.0037338" y="54.6719322" width="2.02943114" height="22.9673083"></rect>
                <ellipse id="Oval" fill="#D7F8EF" cx="146.466945" cy="59.9598284" rx="6.19701296" ry="5.44717021"></ellipse>
                <ellipse id="Oval" fill="#D7F8EF" cx="150.815726" cy="61.8711162" rx="6.19701296" ry="5.44717021"></ellipse>
                <ellipse id="Oval" fill="#D7F8EF" cx="145.814628" cy="65.502563" rx="4.02262245" ry="3.53588241"></ellipse>
                <ellipse id="Oval" fill="#D7F8EF" cx="142.118164" cy="61.8711162" rx="4.02262245" ry="3.53588241"></ellipse>
                <rect id="Rectangle-6" fill="#D7F8EF" x="147.445421" y="57.9529763" width="1.73951241" height="19.6862643"></rect>
            </g>
            <g id="Graphics/Buildings/building_bg_green" transform="translate(1229.500000, 43.500000) scale(-1, 1) translate(-1229.500000, -43.500000) translate(1081.000000, 0.000000)">
                <rect id="Rectangle" fill="#F8C6A8" x="0" y="80.943038" width="31.5286624" height="3.85443038"></rect>
                <rect id="Rectangle" fill="#F8C6A8" x="33.4203822" y="80.943038" width="31.5286624" height="3.85443038"></rect>
                <rect id="Rectangle" fill="#F8C6A8" x="66.2101911" y="80.943038" width="31.5286624" height="3.85443038"></rect>
                <rect id="Rectangle" fill="#F8C6A8" x="99.6305732" y="80.943038" width="31.5286624" height="3.85443038"></rect>
                <rect id="Rectangle" fill="#F8C6A8" x="132.420382" y="80.943038" width="31.5286624" height="3.85443038"></rect>
                <rect id="Rectangle" fill="#F8C6A8" x="165.840764" y="80.943038" width="31.5286624" height="3.85443038"></rect>
                <rect id="Rectangle" fill="#F8C6A8" x="198.630573" y="80.943038" width="31.5286624" height="3.85443038"></rect>
                <rect id="Rectangle" fill="#F8C6A8" x="232.050955" y="80.943038" width="31.5286624" height="3.85443038"></rect>
                <rect id="Rectangle" fill="#F8C6A8" x="264.840764" y="80.943038" width="31.5286624" height="3.85443038"></rect>
                <polygon id="Rectangle-6" fill="#D7F8EF" points="0 60.5696203 6.29757683 60.5696203 6.30573248 29.1835443 20.8089172 29.1835443 20.8089172 18.721519 38.4649682 18.721519 38.4649682 60.9990129 105.936306 60.5696203 105.936306 34.6898734 116.656051 31.3860759 126.745223 34.6898734 140.617834 34.6898734 140.617834 60.5696203 145.66242 60.5696203 145.66242 1.65189873 163.318471 1.65189873 163.318471 2.84217094e-14 169.855928 2.84217094e-14 172.663684 1.65189873 176.56051 1.65189873 176.56051 41.2974684 189.171975 41.2974684 189.171975 30.2848101 227.636943 33.0379747 227.636943 60.5696203 228.898089 60.5696203 228.898089 39.6455696 233.312102 39.6455696 233.312102 20.9240506 271.775438 20.9240506 271.775438 25.8797468 279.343949 25.8797468 279.603568 15.6854605 279.974522 25.8797468 285.649682 25.8797468 285.649682 60.5696203 296.383889 60.5696203 296.383889 79.8417722 0 79.8417722"></polygon>
                <rect id="Rectangle" fill="#D7F8EF" x="0" y="80.943038" width="31.5286624" height="3.85443038"></rect>
                <rect id="Rectangle" fill="#D7F8EF" x="33.4203822" y="80.943038" width="31.5286624" height="3.85443038"></rect>
                <rect id="Rectangle" fill="#D7F8EF" x="66.2101911" y="80.943038" width="31.5286624" height="3.85443038"></rect>
                <rect id="Rectangle" fill="#D7F8EF" x="99.6305732" y="80.943038" width="31.5286624" height="3.85443038"></rect>
                <rect id="Rectangle" fill="#D7F8EF" x="132.420382" y="80.943038" width="31.5286624" height="3.85443038"></rect>
                <rect id="Rectangle" fill="#D7F8EF" x="165.840764" y="80.943038" width="31.5286624" height="3.85443038"></rect>
                <rect id="Rectangle" fill="#D7F8EF" x="198.630573" y="80.943038" width="31.5286624" height="3.85443038"></rect>
                <rect id="Rectangle" fill="#D7F8EF" x="232.050955" y="80.943038" width="31.5286624" height="3.85443038"></rect>
                <rect id="Rectangle" fill="#D7F8EF" x="264.840764" y="80.943038" width="31.5286624" height="3.85443038"></rect>
                <ellipse id="Oval" fill="#D7F8EF" cx="72.7514825" cy="53.586428" rx="7.64298265" ry="6.65135384"></ellipse>
                <ellipse id="Oval" fill="#D7F8EF" cx="78.1149791" cy="55.9202364" rx="7.64298265" ry="6.65135384"></ellipse>
                <ellipse id="Oval" fill="#D7F8EF" cx="80.7967274" cy="48.9188113" rx="4.96123435" ry="4.31754548"></ellipse>
                <ellipse id="Oval" fill="#D7F8EF" cx="67.3879859" cy="55.9202364" rx="4.96123435" ry="4.31754548"></ellipse>
                <rect id="Rectangle-6" fill="#D7F8EF" x="73.6900944" y="53.4697376" width="2.94992313" height="26.3720345"></rect>
                <ellipse id="Oval" fill="#D7F8EF" transform="translate(93.491544, 59.847598) scale(-1, 1) translate(-93.491544, -59.847598) " cx="93.491544" cy="59.8475983" rx="4.54447617" ry="3.94924134"></ellipse>
                <ellipse id="Oval" fill="#D7F8EF" transform="translate(90.302438, 61.233297) scale(-1, 1) translate(-90.302438, -61.233297) " cx="90.302438" cy="61.233297" rx="4.54447617" ry="3.94924134"></ellipse>
                <ellipse id="Oval" fill="#D7F8EF" transform="translate(88.707885, 57.076201) scale(-1, 1) translate(-88.707885, -57.076201) " cx="88.7078849" cy="57.0762009" rx="2.94992313" ry="2.56354263"></ellipse>
                <ellipse id="Oval" fill="#D7F8EF" transform="translate(96.680650, 61.233297) scale(-1, 1) translate(-96.680650, -61.233297) " cx="96.6806501" cy="61.233297" rx="2.94992313" ry="2.56354263"></ellipse>
                <rect id="Rectangle-6" fill="#D7F8EF" transform="translate(92.056446, 67.607511) scale(-1, 1) translate(-92.056446, -67.607511) " x="91.1794421" y="59.7783134" width="1.75400835" height="15.6583955"></rect>
                <ellipse id="Oval" fill="#D7F8EF" cx="48.8621788" cy="57.0132598" rx="7.22984845" ry="6.35503191"></ellipse>
                <ellipse id="Oval" fill="#D7F8EF" cx="53.9357566" cy="59.2430955" rx="7.22984845" ry="6.35503191"></ellipse>
                <ellipse id="Oval" fill="#D7F8EF" cx="48.1011421" cy="63.4797835" rx="4.69305952" ry="4.12519615"></ellipse>
                <ellipse id="Oval" fill="#D7F8EF" cx="43.7886009" cy="59.2430955" rx="4.69305952" ry="4.12519615"></ellipse>
                <rect id="Rectangle-6" fill="#D7F8EF" x="50.0037338" y="54.6719322" width="2.02943114" height="22.9673083"></rect>
                <ellipse id="Oval" fill="#D7F8EF" cx="146.466945" cy="59.9598284" rx="6.19701296" ry="5.44717021"></ellipse>
                <ellipse id="Oval" fill="#D7F8EF" cx="150.815726" cy="61.8711162" rx="6.19701296" ry="5.44717021"></ellipse>
                <ellipse id="Oval" fill="#D7F8EF" cx="145.814628" cy="65.502563" rx="4.02262245" ry="3.53588241"></ellipse>
                <ellipse id="Oval" fill="#D7F8EF" cx="142.118164" cy="61.8711162" rx="4.02262245" ry="3.53588241"></ellipse>
                <rect id="Rectangle-6" fill="#D7F8EF" x="147.445421" y="57.9529763" width="1.73951241" height="19.6862643"></rect>
            </g>
            <g id="Graphics/Buildings/building_bg_green" transform="translate(1464.500000, 43.500000) scale(-1, 1) translate(-1464.500000, -43.500000) translate(1316.000000, 0.000000)">
                <rect id="Rectangle" fill="#F8C6A8" x="0" y="80.943038" width="31.5286624" height="3.85443038"></rect>
                <rect id="Rectangle" fill="#F8C6A8" x="33.4203822" y="80.943038" width="31.5286624" height="3.85443038"></rect>
                <rect id="Rectangle" fill="#F8C6A8" x="66.2101911" y="80.943038" width="31.5286624" height="3.85443038"></rect>
                <rect id="Rectangle" fill="#F8C6A8" x="99.6305732" y="80.943038" width="31.5286624" height="3.85443038"></rect>
                <rect id="Rectangle" fill="#F8C6A8" x="132.420382" y="80.943038" width="31.5286624" height="3.85443038"></rect>
                <rect id="Rectangle" fill="#F8C6A8" x="165.840764" y="80.943038" width="31.5286624" height="3.85443038"></rect>
                <rect id="Rectangle" fill="#F8C6A8" x="198.630573" y="80.943038" width="31.5286624" height="3.85443038"></rect>
                <rect id="Rectangle" fill="#F8C6A8" x="232.050955" y="80.943038" width="31.5286624" height="3.85443038"></rect>
                <rect id="Rectangle" fill="#F8C6A8" x="264.840764" y="80.943038" width="31.5286624" height="3.85443038"></rect>
                <polygon id="Rectangle-6" fill="#D7F8EF" points="0 60.5696203 6.29757683 60.5696203 6.30573248 29.1835443 20.8089172 29.1835443 20.8089172 18.721519 38.4649682 18.721519 38.4649682 60.9990129 105.936306 60.5696203 105.936306 34.6898734 116.656051 31.3860759 126.745223 34.6898734 140.617834 34.6898734 140.617834 60.5696203 145.66242 60.5696203 145.66242 1.65189873 163.318471 1.65189873 163.318471 2.84217094e-14 169.855928 2.84217094e-14 172.663684 1.65189873 176.56051 1.65189873 176.56051 41.2974684 189.171975 41.2974684 189.171975 30.2848101 227.636943 33.0379747 227.636943 60.5696203 228.898089 60.5696203 228.898089 39.6455696 233.312102 39.6455696 233.312102 20.9240506 271.775438 20.9240506 271.775438 25.8797468 279.343949 25.8797468 279.603568 15.6854605 279.974522 25.8797468 285.649682 25.8797468 285.649682 60.5696203 296.383889 60.5696203 296.383889 79.8417722 0 79.8417722"></polygon>
                <rect id="Rectangle" fill="#D7F8EF" x="0" y="80.943038" width="31.5286624" height="3.85443038"></rect>
                <rect id="Rectangle" fill="#D7F8EF" x="33.4203822" y="80.943038" width="31.5286624" height="3.85443038"></rect>
                <rect id="Rectangle" fill="#D7F8EF" x="66.2101911" y="80.943038" width="31.5286624" height="3.85443038"></rect>
                <rect id="Rectangle" fill="#D7F8EF" x="99.6305732" y="80.943038" width="31.5286624" height="3.85443038"></rect>
                <rect id="Rectangle" fill="#D7F8EF" x="132.420382" y="80.943038" width="31.5286624" height="3.85443038"></rect>
                <rect id="Rectangle" fill="#D7F8EF" x="165.840764" y="80.943038" width="31.5286624" height="3.85443038"></rect>
                <rect id="Rectangle" fill="#D7F8EF" x="198.630573" y="80.943038" width="31.5286624" height="3.85443038"></rect>
                <rect id="Rectangle" fill="#D7F8EF" x="232.050955" y="80.943038" width="31.5286624" height="3.85443038"></rect>
                <rect id="Rectangle" fill="#D7F8EF" x="264.840764" y="80.943038" width="31.5286624" height="3.85443038"></rect>
                <ellipse id="Oval" fill="#D7F8EF" cx="72.7514825" cy="53.586428" rx="7.64298265" ry="6.65135384"></ellipse>
                <ellipse id="Oval" fill="#D7F8EF" cx="78.1149791" cy="55.9202364" rx="7.64298265" ry="6.65135384"></ellipse>
                <ellipse id="Oval" fill="#D7F8EF" cx="80.7967274" cy="48.9188113" rx="4.96123435" ry="4.31754548"></ellipse>
                <ellipse id="Oval" fill="#D7F8EF" cx="67.3879859" cy="55.9202364" rx="4.96123435" ry="4.31754548"></ellipse>
                <rect id="Rectangle-6" fill="#D7F8EF" x="73.6900944" y="53.4697376" width="2.94992313" height="26.3720345"></rect>
                <ellipse id="Oval" fill="#D7F8EF" transform="translate(93.491544, 59.847598) scale(-1, 1) translate(-93.491544, -59.847598) " cx="93.491544" cy="59.8475983" rx="4.54447617" ry="3.94924134"></ellipse>
                <ellipse id="Oval" fill="#D7F8EF" transform="translate(90.302438, 61.233297) scale(-1, 1) translate(-90.302438, -61.233297) " cx="90.302438" cy="61.233297" rx="4.54447617" ry="3.94924134"></ellipse>
                <ellipse id="Oval" fill="#D7F8EF" transform="translate(88.707885, 57.076201) scale(-1, 1) translate(-88.707885, -57.076201) " cx="88.7078849" cy="57.0762009" rx="2.94992313" ry="2.56354263"></ellipse>
                <ellipse id="Oval" fill="#D7F8EF" transform="translate(96.680650, 61.233297) scale(-1, 1) translate(-96.680650, -61.233297) " cx="96.6806501" cy="61.233297" rx="2.94992313" ry="2.56354263"></ellipse>
                <rect id="Rectangle-6" fill="#D7F8EF" transform="translate(92.056446, 67.607511) scale(-1, 1) translate(-92.056446, -67.607511) " x="91.1794421" y="59.7783134" width="1.75400835" height="15.6583955"></rect>
                <ellipse id="Oval" fill="#D7F8EF" cx="48.8621788" cy="57.0132598" rx="7.22984845" ry="6.35503191"></ellipse>
                <ellipse id="Oval" fill="#D7F8EF" cx="53.9357566" cy="59.2430955" rx="7.22984845" ry="6.35503191"></ellipse>
                <ellipse id="Oval" fill="#D7F8EF" cx="48.1011421" cy="63.4797835" rx="4.69305952" ry="4.12519615"></ellipse>
                <ellipse id="Oval" fill="#D7F8EF" cx="43.7886009" cy="59.2430955" rx="4.69305952" ry="4.12519615"></ellipse>
                <rect id="Rectangle-6" fill="#D7F8EF" x="50.0037338" y="54.6719322" width="2.02943114" height="22.9673083"></rect>
                <ellipse id="Oval" fill="#D7F8EF" cx="146.466945" cy="59.9598284" rx="6.19701296" ry="5.44717021"></ellipse>
                <ellipse id="Oval" fill="#D7F8EF" cx="150.815726" cy="61.8711162" rx="6.19701296" ry="5.44717021"></ellipse>
                <ellipse id="Oval" fill="#D7F8EF" cx="145.814628" cy="65.502563" rx="4.02262245" ry="3.53588241"></ellipse>
                <ellipse id="Oval" fill="#D7F8EF" cx="142.118164" cy="61.8711162" rx="4.02262245" ry="3.53588241"></ellipse>
                <rect id="Rectangle-6" fill="#D7F8EF" x="147.445421" y="57.9529763" width="1.73951241" height="19.6862643"></rect>
            </g>
            <g id="Rectangle-11">
                <use fill="#D7F8EF" fill-rule="evenodd" xlink:href="#path-1"></use>
                <rect stroke="#FFFFFF" stroke-width="1" x="0.5" y="80.5" width="1619" height="5.5"></rect>
            </g>
        </g>
    </g>
</svg>