<?xml version="1.0" encoding="UTF-8"?>
<svg width="796px" height="68px" viewBox="0 0 796 68" version="1.1" xmlns="http://www.w3.org/2000/svg" xmlns:xlink="http://www.w3.org/1999/xlink">
    <!-- Generator: sketchtool 48.2 (47327) - http://www.bohemiancoding.com/sketch -->
    <title>20FA3B53-E074-42B2-9B63-F46AD79EADFF</title>
    <desc>Created with sketchtool.</desc>
    <defs></defs>
    <g id="DT_LandingPage" stroke="none" stroke-width="1" fill="none" fill-rule="evenodd" transform="translate(-169.000000, -851.000000)">
        <g id="Expiring-Soon" transform="translate(64.000000, 298.000000)">
            <g id="ExpiringSoonPeople" transform="translate(105.000000, 551.000000)">
                <g id="Graphics/Characters/man_2" transform="translate(25.500000, 42.000000) scale(-1, 1) translate(-25.500000, -42.000000) translate(0.000000, 14.000000)">
                    <path d="M12.4424467,52.0382061 C13.0323756,51.637361 14.2224698,51.4826466 16.0127294,51.5740629 L17.6398533,49.5996776 C18.7433789,48.8001075 19.769473,48.8001075 20.7181355,49.5996776 C20.9939918,50.5431632 20.956628,50.027444 20.9939918,51.4181314 C21.018901,52.3452564 20.966357,53.2058793 20.8363597,54 L12.4424467,54 C11.8525178,53.0929825 11.8525178,52.4390512 12.4424467,52.0382061 Z" id="Shoe" fill="#000000" transform="translate(16.500000, 51.500000) rotate(27.000000) translate(-16.500000, -51.500000) "></path>
                    <path d="M43.5974448,46.1692033 C44.1873737,45.8031029 45.3528088,45.8062634 47.0937502,46.1786847 L48.7948514,43.9420432 C49.898377,43.2117787 50.9244711,43.2117787 51.8731337,43.9420432 C52.1489899,44.8037487 52.1116261,44.3327313 52.1489899,45.6028759 C52.1738992,46.449639 52.1213551,47.2356642 51.9913578,47.9609516 L47.1638012,48.3943448 L43.5974448,47.9609516 C43.0075159,47.1325532 43.0075159,46.5353038 43.5974448,46.1692033 Z" id="Shoe" fill="#000000" transform="translate(47.654998, 45.894345) rotate(-101.000000) translate(-47.654998, -45.894345) "></path>
                    <polygon id="Legs" fill="#000000" points="25.2568579 28 36.7034092 28 36.6066193 33.5422844 36.8547115 43.4666821 45.8065893 41.4406736 46.8003911 46.2423146 34.4001955 47.0294612 30.9801336 33.8880859 23.6798574 42.3857127 22.2481701 52.6516945 16.7151357 50.605526 19.2766756 40.3258473"></polygon>
                    <path d="M5.36222945,18.5000779 C7.58757278,19.552568 8,18.7644367 8,17.7808825 C8,16.7973282 6.43299662,16 4.5,16 C2.56700338,16 1,16.7973282 1,17.7808825 C1,18.7644367 3.13688612,17.4475879 5.36222945,18.5000779 Z" id="Hand" fill="#F6E6CA" transform="translate(4.500000, 17.500000) rotate(11.000000) translate(-4.500000, -17.500000) "></path>
                    <path d="M22.2882943,8.10320968 C23.5027229,5.59936172 28.5887165,5.00596601 30.8328684,8.12427023 C33.0873982,13.4568369 33.7487326,24.6009048 32.0227142,31.7059104 C27.08041,32.3985912 23.0728386,31.8676482 20,30.1130815 C20.6598764,19.7639958 21.4226412,12.4273718 22.2882943,8.10320968 Z" id="Torso" fill="#63220E" transform="translate(26.500000, 19.000000) rotate(-28.000000) translate(-26.500000, -19.000000) "></path>
                    <path d="M40.6709897,18.8071313 C42.896333,19.8596214 43.3087602,19.0714901 43.3087602,18.0879359 C43.3087602,17.1043816 41.7417568,16.3070534 39.8087602,16.3070534 C37.8757636,16.3070534 36.3087602,17.1043816 36.3087602,18.0879359 C36.3087602,19.0714901 38.4456463,17.7546412 40.6709897,18.8071313 Z" id="Hand" fill="#F6E6CA" transform="translate(39.808760, 17.807053) rotate(-119.000000) translate(-39.808760, -17.807053) "></path>
                    <path d="M33.4578766,5.25836054 C33.4522442,3.66306649 36.3367868,2.99895604 36.3367868,5.25836054 C36.3367868,6.76463021 35.9398914,10.7757514 35.1461005,17.2917241 L28.725742,19.569239 C27.8474717,19.8807907 26.8829305,19.4213745 26.5713788,18.5431043 C26.5665572,18.5295121 26.56191,18.5158587 26.5574385,18.5021473 L26.5574385,18.5021473 C26.2620849,17.5964864 26.7568367,16.6228717 27.6624977,16.3275181 C27.664499,16.3268654 27.6665015,16.3262164 27.6685052,16.3255711 L32.9741206,14.6167728 C33.3003795,9.44136065 33.4616315,6.3218899 33.4578766,5.25836054 Z" id="Arm" fill="#63220E" transform="translate(31.404380, 11.734533) rotate(-96.000000) translate(-31.404380, -11.734533) "></path>
                    <path d="M15.7218369,7.83078595 C15.7162046,6.2354919 18.6007472,5.57138145 18.6007472,7.83078595 C18.6007472,9.33705561 18.2038518,13.3481768 17.4100609,19.8641495 L10.9897024,22.1416644 C10.1114321,22.4532161 9.14689087,21.9938 8.83533918,21.1155297 C8.83051758,21.1019375 8.82587044,21.0882841 8.8213989,21.0745727 L8.8213989,21.0745727 C8.52604528,20.1689118 9.02079712,19.1952971 9.92645807,18.8999435 C9.9284594,18.8992908 9.93046192,18.8986418 9.93246562,18.8979965 L15.238081,17.1891982 C15.5643399,12.0137861 15.7255919,8.89431531 15.7218369,7.83078595 Z" id="Arm" fill="#63220E" transform="translate(13.668340, 14.306958) rotate(27.000000) translate(-13.668340, -14.306958) "></path>
                    <ellipse id="Head" fill="#F6E6CA" cx="18" cy="5.5" rx="5" ry="5.5"></ellipse>
                </g>
                <g id="Graphics/Characters/woman_4" transform="translate(736.000000, 3.000000)">
                    <path d="M15.3919658,65.173538 C17.4019658,65.101577 18.809377,63.9100445 19.6141994,61.5989406 C19.7524051,61.5254968 18.3396617,53.5506684 18.5,53.4128261 C19.1185979,52.8810195 21.4113182,52.6733796 21.5512821,53.9770847 C21.5688052,54.1403057 21.5525795,61.6692921 21.5512821,61.900419 C21.5417177,63.6042325 21.6912903,65.2657311 22,66.8849149 C21.7726405,67.0383617 21.6153993,67.0383617 21.5282763,66.8849149 C21.4411534,66.731468 21.1546262,65.9440017 20.6686948,64.522516 L19.618042,66.8673007 L15,66.8673007 L15.3919658,65.173538 Z" id="Rectangle-23" fill="#000000"></path>
                    <path d="M22.3835229,64.8017866 C24.2887925,65.0422013 25.6351706,64.0646891 26.4226571,61.8692502 C26.5564609,61.8002172 25.5314601,53.8687636 25.6865786,53.7394589 C26.3072524,53.2220736 28.886073,52.3733339 28.9998636,53.738139 C29.011145,53.8734483 28.3190467,61.9772216 28.3180151,62.1556403 C28.3086567,63.7741822 28.4550076,65.352527 28.7570677,66.8906746 C28.5346055,67.0364418 28.3807513,67.0364418 28.2955049,66.8906746 C28.2102586,66.7449073 27.9299032,65.9968518 27.4544388,64.6465079 L26.4264169,66.873942 L24.4150922,66.873942 L22,66.4107807 L22.3835229,64.8017866 Z" id="Rectangle-23" fill="#000000" transform="translate(25.500000, 60.000000) rotate(-11.000000) translate(-25.500000, -60.000000) "></path>
                    <path d="M17.0987975,34.8219556 C18.6139653,32.685573 23.0132552,32.1286579 25.8131452,34.7893189 C27.2306754,42.1899296 26.2187671,48.8484354 29,54.7490711 C22.8337914,55.3400939 17.8337914,54.8870722 14,53.3900062 C15.4554472,45.0488379 16.4883797,38.8594877 17.0987975,34.8219556 Z" id="Torso" fill="#1A2F57" transform="translate(21.500000, 44.000000) rotate(-19.000000) translate(-21.500000, -44.000000) "></path>
                    <path d="M18.6856245,16.2360364 C19.9987699,13.6141124 23.8114878,12.9306256 26.2380592,16.1959823 C27.4665854,25.27855 26.5895981,33.4503526 29,40.6920418 C23.6559526,41.4173879 19.3226192,40.8614068 16,39.0240985 C17.2613876,28.7872101 18.1565958,21.1911894 18.6856245,16.2360364 Z" id="Torso" fill="#D2C69F" transform="translate(22.500000, 27.500000) rotate(14.000000) translate(-22.500000, -27.500000) "></path>
                    <g id="Group-5" transform="translate(27.500000, 26.500000) rotate(-13.000000) translate(-27.500000, -26.500000) translate(20.000000, 15.000000)">
                        <path d="M5.65825291,19.6971915 C7.60004808,20.8090007 7.95992477,19.9764497 7.95992477,18.9374617 C7.95992477,17.8984736 6.59258538,17.0562074 4.90588676,17.0562074 C3.21918815,17.0562074 1.85184876,17.8984736 1.85184876,18.9374617 C1.85184876,19.9764497 3.71645774,18.5853823 5.65825291,19.6971915 Z" id="Hand" fill="#633D1D" transform="translate(4.905887, 18.640748) rotate(-427.000000) translate(-4.905887, -18.640748) "></path>
                        <path d="M9.69877882,3.12821609 C9.69353845,1.59247139 12.3773339,0.953150942 12.3773339,3.12821609 C12.3773339,4.57825953 12.00806,8.43965307 11.2695124,14.7123967 L5.33749517,16.8896561 C4.51528499,17.1914362 3.60411083,16.7695443 3.30233072,15.9473341 C3.29387228,15.9242888 3.28595009,15.9010502 3.27857053,15.8776371 L3.27857053,15.8776371 C3.00145393,14.9984289 3.48066734,14.0594485 4.35523125,13.7680063 L9.24868942,12.1372963 C9.5522426,7.15507263 9.7022724,4.15204589 9.69877882,3.12821609 Z" id="Arm" fill="#D2C69F" transform="translate(7.788687, 9.356841) rotate(-379.000000) translate(-7.788687, -9.356841) "></path>
                    </g>
                    <g id="Group-5" transform="translate(14.000000, 11.500000) rotate(119.000000) translate(-14.000000, -11.500000) translate(8.000000, -1.000000)">
                        <path d="M7.67556078,22.3944938 C9.61735595,23.5063029 9.97723264,22.673752 9.97723264,21.634764 C9.97723264,20.5957759 8.60989325,19.7535097 6.92319464,19.7535097 C5.23649602,19.7535097 3.86915663,20.5957759 3.86915663,21.634764 C3.86915663,22.673752 5.73376561,21.2826846 7.67556078,22.3944938 Z" id="Hand" fill="#633D1D" transform="translate(6.923195, 21.338051) rotate(-457.000000) translate(-6.923195, -21.338051) "></path>
                        <path d="M6.18075193,2.35127632 C6.17551156,0.815531623 8.85930698,0.176211173 8.85930698,2.35127632 C8.85930698,3.80131976 8.49003315,7.6627133 7.7514855,13.9354569 L6.49057362,18.8942516 C6.31487524,19.5852215 5.61230176,20.0029316 4.92133183,19.8272332 C4.89411496,19.8203126 4.86713118,19.8125057 4.84042354,19.8038249 L4.84042354,19.8038249 C4.10700419,19.5654429 3.69050959,18.7926532 3.89464804,18.0489749 L5.73066253,11.3603565 C6.03421572,6.37813286 6.18424552,3.37510612 6.18075193,2.35127632 Z" id="Arm" fill="#D2C69F" transform="translate(6.351078, 10.408450) rotate(-379.000000) translate(-6.351078, -10.408450) "></path>
                    </g>
                    <g id="Group-9" transform="translate(26.000000, 10.500000) rotate(31.000000) translate(-26.000000, -10.500000) translate(20.000000, 4.000000)">
                        <ellipse id="Head" fill="#633D1D" cx="5.13776722" cy="6.78440644" rx="5.09738717" ry="5.87565712"></ellipse>
                        <path d="M1.18289786,3.09954714 C2.11727191,1.76348878 3.54879655,0.908749329 5.15351328,0.908749329 C6.64732733,0.908749329 8.45615099,0.993662919 9.38847722,2.17379488 C10.2131926,3.21771374 10.2509005,5.26126046 10.2509005,6.78440644 C10.2509005,8.40337291 9.6828509,9.86940744 8.76396253,10.9321355 C7.97276006,8.17162332 7.26195072,6.73509894 6.63153451,6.62256237 C5.99441348,6.5088289 5.69000982,6.79457875 5.71832352,7.47981192 L4.79259008,7.47981192 C5.00795175,7.04235455 4.99330409,6.38160197 4.74864709,5.49755417 C4.17475847,4.02700449 2.9861754,3.22766881 1.18289786,3.09954714 Z" id="Combined-Shape" fill="#000000"></path>
                        <ellipse id="Oval-9" fill="#000000" cx="9.92755344" cy="2.33923779" rx="1.58194774" ry="1.73859367"></ellipse>
                    </g>
                </g>
                <g id="Graphics/Characters/man_7" transform="translate(766.000000, 0.000000)">
                    <path d="M7.61150288,67.0030736 C8.19722802,66.6104046 9.37884178,66.458846 11.1563441,66.5483977 L12.7718733,64.6142843 C13.8675354,63.8310231 14.8863176,63.8310231 15.8282201,64.6142843 C16.1021107,65.5385254 16.0650131,65.0333254 16.1021107,66.3956467 C16.1268424,67.3038609 16.0746727,68.1469295 15.9456018,68.9248524 L7.61150288,68.9248524 C7.02577774,68.0363355 7.02577774,67.3957426 7.61150288,67.0030736 Z" id="Shoe" fill="#000000"></path>
                    <path d="M19.9179162,66.5358411 C20.5036413,66.1427794 21.6607717,66.1461726 23.3893073,66.5460207 L25.0782866,64.1446626 C26.1739487,63.3606179 27.1927309,63.3606179 28.1346334,64.1446626 C28.408524,65.0698281 28.3714264,64.5641228 28.408524,65.9278067 C28.4332557,66.8369293 28.381086,67.6808411 28.2520151,68.4595421 L23.4588591,68.9248524 L19.9179162,68.4595421 C19.332191,67.5701365 19.332191,66.9289029 19.9179162,66.5358411 Z" id="Shoe" fill="#000000" transform="translate(23.946556, 66.240741) rotate(-9.000000) translate(-23.946556, -66.240741) "></path>
                    <path d="M16.0767536,37.5319348 C18.1201126,38.7004266 18.4988124,37.8254303 18.4988124,36.7334721 C18.4988124,35.641514 17.0599555,34.756307 15.2850356,34.756307 C13.5101158,34.756307 12.0712589,35.641514 12.0712589,36.7334721 C12.0712589,37.8254303 14.0333946,36.363443 16.0767536,37.5319348 Z" id="Hand" fill="#F6E6CA" transform="translate(15.285036, 36.421632) rotate(-88.000000) translate(-15.285036, -36.421632) "></path>
                    <polygon id="Legs" fill="#63220E" points="15.0546215 38.6355341 27.0551478 38.6355341 26.9536736 44.3462874 27.2137727 54.5723571 28.4144893 65.0335315 22.9445682 65.986044 21.3890331 54.5468582 21.0548847 44.7026002 16.8426874 66.4562534 11.6401425 65.9347661"></polygon>
                    <path d="M17.4817125,16.1397082 C18.689928,13.5463442 23.5946577,12.9099202 25.8273284,16.1397082 C28.070324,21.6629215 28.728275,33.2054053 27.0110869,40.5644247 C22.0940676,41.2818699 18.1069991,40.7319449 15.0498812,38.91465 C15.8098776,28.2101124 16.6204881,20.6184651 17.4817125,16.1397082 Z" id="Torso" fill="#CBDAEA"></path>
                    <path d="M22.3475375,36.3564115 C24.3908965,37.5249033 24.7695962,36.6499069 24.7695962,35.5579488 C24.7695962,34.4659907 23.3307394,33.5807837 21.5558195,33.5807837 C19.7808996,33.5807837 18.3420428,34.4659907 18.3420428,35.5579488 C18.3420428,36.6499069 20.3041784,35.1879196 22.3475375,36.3564115 Z" id="Hand" fill="#F6E6CA" transform="translate(21.555819, 35.246108) rotate(-88.000000) translate(-21.555819, -35.246108) "></path>
                    <path d="M26.1358561,18.5201771 C26.1303247,16.9040621 28.9631829,16.231284 28.9631829,18.5201771 C28.9631829,20.0461058 28.5733989,24.1095782 27.793831,30.7105941 L21.5283797,33.0032451 C20.6609785,33.3206441 19.7005081,32.8747792 19.3831091,32.007378 C19.3745688,31.9840387 19.3665498,31.9605119 19.3590581,31.9368151 L19.3590581,31.9368151 C19.0667,31.0120702 19.5710293,30.0239237 20.4914226,29.7181416 L25.660768,28.0007306 C25.981181,22.7577716 26.1395438,19.5975871 26.1358561,18.5201771 Z" id="Arm" fill="#CBDAEA" transform="translate(23.907363, 25.312936) rotate(-18.000000) translate(-23.907363, -25.312936) "></path>
                    <ellipse id="Head" fill="#F6E6CA" cx="19.9881235" cy="9.0907139" rx="4.93824228" ry="5.68169619"></ellipse>
                    <path d="M15.6769597,5.63990656 C15.8479609,4.50049928 16.2254908,3.49599261 17.040385,2.87992464 C17.816681,2.29303723 19.479761,2.27267848 20.4773208,2.27267848 C22.4314971,2.27267848 24.6131738,3.42293597 25.4127527,5.32281039 C25.7284586,6.07295728 25.6100937,7.35875626 25.6100937,8.24858898 C25.6100937,9.62471202 25.1488086,10.8323212 24.4014331,11.7552335 C23.7343395,9.80843398 23.0691502,8.59091572 22.405865,8.10267871 C21.3706231,7.34064833 20.7939628,9.84138756 20.3064489,9.59134297 C19.7442548,9.30299508 20.1187617,8.78809109 20.3064489,7.02589375 C18.1476684,6.81827798 16.6045053,6.35628226 15.6769597,5.63990656 Z" id="Hair" fill="#D0B174"></path>
                </g>
            </g>
        </g>
    </g>
</svg>