<?xml version="1.0" encoding="UTF-8"?>
<svg width="751px" height="68px" viewBox="0 0 751 68" version="1.1" xmlns="http://www.w3.org/2000/svg" xmlns:xlink="http://www.w3.org/1999/xlink">
    <!-- Generator: sketchtool 48.2 (47327) - http://www.bohemiancoding.com/sketch -->
    <title>2C7E3A43-F1E6-42FB-8F74-DEBCCD756CA2</title>
    <desc>Created with sketchtool.</desc>
    <defs>
        <path d="M22.7631579,62.3684211 L21.9736842,62.3684211 L21.9736842,46.2909992 L17.2368421,46.2909992 L17.2368421,62.3684211 L1.97368421,62.3684211 L1.97368421,44.4736842 L42.2368421,44.4736842 L42.2368421,62.3684211 L27.5,62.3684211 L27.5,46.2909992 L22.7631579,46.2909992 L22.7631579,62.3684211 Z M1.97368421,6.31578947 L42.2368421,6.31578947 L42.2368421,43.5526316 L1.97368421,43.5526316 L1.97368421,6.31578947 Z M4.47368421,9.34210526 L4.47368421,23.5526316 L14.6052632,23.5526316 L14.6052632,9.34210526 L4.47368421,9.34210526 Z M17.1052632,9.34210526 L17.1052632,23.5526316 L27.2368421,23.5526316 L27.2368421,9.34210526 L17.1052632,9.34210526 Z M29.6052632,9.34210526 L29.6052632,23.5526316 L39.7368421,23.5526316 L39.7368421,9.34210526 L29.6052632,9.34210526 Z M4.47368421,26.4473684 L4.47368421,40.6578947 L14.6052632,40.6578947 L14.6052632,26.4473684 L4.47368421,26.4473684 Z M17.1052632,26.4473684 L17.1052632,40.6578947 L27.2368421,40.6578947 L27.2368421,26.4473684 L17.1052632,26.4473684 Z M29.6052632,26.4473684 L29.6052632,40.6578947 L39.7368421,40.6578947 L39.7368421,26.4473684 L29.6052632,26.4473684 Z M4.47368421,46.2909992 L4.47368421,60.2955759 L14.6052632,60.2955759 L14.6052632,46.2909992 L4.47368421,46.2909992 Z M29.6052632,46.3157895 L29.6052632,60.2631579 L39.7368421,60.2631579 L39.7368421,46.3157895 L29.6052632,46.3157895 Z M1.31578947,2.63157895 L42.8947368,2.63157895 L42.8947368,4.60526316 L1.31578947,4.60526316 L1.31578947,2.63157895 Z M0,0 L44.2105263,0 L44.2105263,1.97368421 L0,1.97368421 L0,0 Z" id="path-1"></path>
        <path d="M10,57.1052632 L9.21052632,57.1052632 L9.21052632,42.3436308 L4.47368421,42.3436308 L4.47368421,57.1052632 L1.97368421,57.1052632 L1.97368421,39.2105263 L42.2368421,39.2105263 L42.2368421,57.1052632 L14.7368421,57.1052632 L14.7368421,42.3436308 L10,42.3436308 L10,57.1052632 Z M1.97368421,5.26315789 L42.2368421,5.26315789 L42.2368421,20.7894737 L1.97368421,20.7894737 L1.97368421,5.26315789 Z M1.97368421,22.1052632 L4.47368421,22.1052632 L4.47368421,37.8947368 L1.97368421,37.8947368 L1.97368421,22.1052632 Z M5.79789057,22.1052632 L8.21988792,22.1052632 L8.21988792,37.8947368 L5.79789057,37.8947368 L5.79789057,22.1052632 Z M9.62209692,22.1052632 L12.0440943,22.1052632 L12.0440943,37.8947368 L9.62209692,37.8947368 L9.62209692,22.1052632 Z M13.4463033,22.1052632 L15.8683006,22.1052632 L15.8683006,37.8947368 L13.4463033,37.8947368 L13.4463033,22.1052632 Z M17.2705096,22.1052632 L19.692507,22.1052632 L19.692507,37.8947368 L17.2705096,37.8947368 L17.2705096,22.1052632 Z M21.094716,22.1052632 L23.5167133,22.1052632 L23.5167133,37.8947368 L21.094716,37.8947368 L21.094716,22.1052632 Z M24.9189223,22.1052632 L27.3409197,22.1052632 L27.3409197,37.8947368 L24.9189223,37.8947368 L24.9189223,22.1052632 Z M28.7431287,22.1052632 L31.1651261,22.1052632 L31.1651261,37.8947368 L28.7431287,37.8947368 L28.7431287,22.1052632 Z M32.5673351,22.1052632 L34.9893324,22.1052632 L34.9893324,37.8947368 L32.5673351,37.8947368 L32.5673351,22.1052632 Z M36.3915414,22.1052632 L38.8135388,22.1052632 L38.8135388,37.8947368 L36.3915414,37.8947368 L36.3915414,22.1052632 Z M40.2157478,22.1052632 L42.6377451,22.1052632 L42.6377451,37.8947368 L40.2157478,37.8947368 L40.2157478,22.1052632 Z M4.47368421,7.62300922 L4.47368421,18.2894737 L14.6052632,18.2894737 L14.6052632,7.62300922 L4.47368421,7.62300922 Z M17.1052632,7.62300922 L17.1052632,18.2894737 L27.2368421,18.2894737 L27.2368421,7.62300922 L17.1052632,7.62300922 Z M29.6052632,7.62300922 L29.6052632,18.2894737 L39.7368421,18.2894737 L39.7368421,7.62300922 L29.6052632,7.62300922 Z M17.6315789,42.4958745 L17.6315789,54.2429443 L27.7631579,54.2429443 L27.7631579,42.4958745 L17.6315789,42.4958745 Z M29.6052632,42.5166686 L29.6052632,54.215752 L39.7368421,54.215752 L39.7368421,42.5166686 L29.6052632,42.5166686 Z M1.31578947,2.63157895 L42.8947368,2.63157895 L42.8947368,4.60526316 L1.31578947,4.60526316 L1.31578947,2.63157895 Z M1.47792889e-12,-2.84217094e-14 L44.2105263,-2.84217094e-14 L44.2105263,1.97368421 L1.47792889e-12,1.97368421 L1.47792889e-12,-2.84217094e-14 Z" id="path-3"></path>
        <path d="M25.2631579,53.5526316 L25.2631579,44.3421053 C24.9764546,42.2453485 23.6606651,41.1792804 21.3157895,41.1439012 C18.9709138,41.1085219 17.6551243,42.17459 17.3684211,44.3421053 L17.3684211,53.5526316 L2.10526316,53.5526316 L2.10526316,14.6052632 L41.0526316,14.6052632 L41.0526316,53.5526316 L25.2631579,53.5526316 Z M3.81578947,17.6315789 L3.81578947,24.7368421 L10.9210526,24.7368421 L10.9210526,17.6315789 L3.81578947,17.6315789 Z M13.0263158,17.6315789 L13.0263158,24.7368421 L20.1315789,24.7368421 L20.1315789,17.6315789 L13.0263158,17.6315789 Z M22.2368421,17.6315789 L22.2368421,24.7368421 L29.3421053,24.7368421 L29.3421053,17.6315789 L22.2368421,17.6315789 Z M31.4473684,17.6315789 L31.4473684,24.7368421 L38.5526316,24.7368421 L38.5526316,17.6315789 L31.4473684,17.6315789 Z M3.81578947,29.6052632 L3.81578947,36.7105263 L10.9210526,36.7105263 L10.9210526,29.6052632 L3.81578947,29.6052632 Z M13.0263158,29.6052632 L13.0263158,36.7105263 L20.1315789,36.7105263 L20.1315789,29.6052632 L13.0263158,29.6052632 Z M22.2368421,29.6052632 L22.2368421,36.7105263 L29.3421053,36.7105263 L29.3421053,29.6052632 L22.2368421,29.6052632 Z M31.4473684,29.6052632 L31.4473684,36.7105263 L38.5526316,36.7105263 L38.5526316,29.6052632 L31.4473684,29.6052632 Z M7.76315789,41.4473684 L7.76315789,48.5526316 L14.8684211,48.5526316 L14.8684211,41.4473684 L7.76315789,41.4473684 Z M27.5,41.4473684 L27.5,48.5526316 L34.6052632,48.5526316 L34.6052632,41.4473684 L27.5,41.4473684 Z M0,11.8421053 L21.5789474,-2.84217094e-14 L43.1578947,11.8421053 L43.1578947,13.2894737 L0,13.2894737 L0,11.8421053 Z M17.3684211,7.80431954 L17.3684211,10.0411616 L25.2631579,10.0411616 L25.2631579,7.80431954 C24.9764546,5.70756275 23.6606651,4.64149472 21.3157895,4.60611546 C18.9709138,4.5707362 17.6551243,5.63680423 17.3684211,7.80431954 Z" id="path-5"></path>
        <path d="M21.1842105,40.6578947 L21.1842105,30 L14.0789474,30 L14.0789474,40.6578947 L2.36842105,40.6578947 L2.36842105,25.6578947 L40.1315789,25.6578947 L40.1315789,40.6578947 L21.1842105,40.6578947 Z M6.57894737,30 L6.57894737,36.1842105 L12.7631579,36.1842105 L12.7631579,30 L6.57894737,30 Z M22.3684211,30 L22.3684211,36.1842105 L28.5526316,36.1842105 L28.5526316,30 L22.3684211,30 Z M30.2631579,30 L30.2631579,36.1842105 L36.4473684,36.1842105 L36.4473684,30 L30.2631579,30 Z M2.36842105,13.5526316 L40.1315789,13.5526316 L40.1315789,25 L2.36842105,25 L2.36842105,13.5526316 Z M6.57894737,16.3157895 L6.57894737,22.5 L12.7631579,22.5 L12.7631579,16.3157895 L6.57894737,16.3157895 Z M14.4736842,16.3157895 L14.4736842,22.5 L20.6578947,22.5 L20.6578947,16.3157895 L14.4736842,16.3157895 Z M22.3684211,16.3157895 L22.3684211,22.5 L28.5526316,22.5 L28.5526316,16.3157895 L22.3684211,16.3157895 Z M30.2631579,16.3157895 L30.2631579,22.5 L36.4473684,22.5 L36.4473684,16.3157895 L30.2631579,16.3157895 Z M21.25,0 L42.5,12.8947368 L1.70530257e-12,12.8947368 L21.25,0 Z" id="path-7"></path>
        <path d="M38.6842105,31.4473684 L38.6842105,20.3947368 L31.5789474,20.3947368 L31.5789474,31.4473684 L4.47368421,31.4473684 L4.47368421,16.4473684 L42.2368421,16.4473684 L42.2368421,31.4473684 L38.6842105,31.4473684 Z M29.7368421,20.3947368 L23.5526316,20.3947368 L23.5526316,26.5789474 L29.7368421,26.5789474 L29.7368421,20.3947368 Z M21.8421053,20.3947368 L15.6578947,20.3947368 L15.6578947,26.5789474 L21.8421053,26.5789474 L21.8421053,20.3947368 Z M13.9473684,20.3947368 L7.76315789,20.3947368 L7.76315789,26.5789474 L13.9473684,26.5789474 L13.9473684,20.3947368 Z M23.3552632,2.63157895 L44.6052632,15.5263158 L2.10526316,15.5263158 L23.3552632,2.63157895 Z M17.3684211,11.6313322 L17.3684211,13.0479989 L22.3684211,13.0479989 L22.3684211,11.6313322 C22.1868423,10.3033862 21.353509,9.62820981 19.8684211,9.60580295 C18.3833331,9.58339609 17.5499998,10.2585725 17.3684211,11.6313322 Z M24.3421053,11.6313322 L24.3421053,13.0479989 L29.3421053,13.0479989 L29.3421053,11.6313322 C29.1605265,10.3033862 28.3271932,9.62820981 26.8421053,9.60580295 C25.3570173,9.58339609 24.523684,10.2585725 24.3421053,11.6313322 Z M0,14.2105263 L23.3329758,0 L46.8421053,14.2105263 L46.8421053,15.9210526 L23.3329758,1.71052632 L0,15.9210526 L0,14.2105263 Z" id="path-9"></path>
        <path d="M7.23684211,25.7894737 L6.71052632,25.7894737 L6.71052632,14.3421053 L3.42105263,14.3421053 L3.42105263,25.7894737 L1.31578947,25.7894737 L1.31578947,13.1578947 L31.5789474,13.1578947 L31.5789474,25.7894737 L10.5263158,25.7894737 L10.5263158,14.3421053 L7.23684211,14.3421053 L7.23684211,25.7894737 Z M11.1842105,14.3421053 L11.1842105,24.7368421 L30.6578947,24.7368421 L30.6578947,14.3421053 L11.1842105,14.3421053 Z M0,0 L32.5,0 L32.5,12.6315789 L0,12.6315789 L0,0 Z" id="path-11"></path>
        <path d="M31.5789474,22.6315789 L31.5789474,14.0789474 L24.2105263,14.0789474 L24.2105263,22.6315789 L-7.95807864e-13,22.6315789 L-7.95807864e-13,6.97368421 L32.5,6.97368421 L32.5,22.6315789 L31.5789474,22.6315789 Z M1.05263158,11.0526316 L1.05263158,21.8421053 L23.4210526,21.8421053 L23.4210526,11.0526316 L1.05263158,11.0526316 Z M24.2105263,11.0526316 L24.2105263,13.4210526 L31.5789474,13.4210526 L31.5789474,11.0526316 L24.2105263,11.0526316 Z M1.31578947,0 L31.1842105,0 L32.5,3.91260606 L32.3997494,4.86842105 C31.8597536,5.92105263 31.3197577,6.44736842 30.7797619,6.44736842 C30.2397661,6.44736842 29.6997703,5.92105263 29.1597744,4.86842105 C28.6197786,5.92105263 28.0797828,6.44736842 27.539787,6.44736842 C26.9997911,6.44736842 26.4597953,5.92105263 25.9197995,4.86842105 C25.3798037,5.92105263 24.8398079,6.44736842 24.299812,6.44736842 C23.7598162,6.44736842 23.2198204,5.92105263 22.6798246,4.86842105 C22.1398287,5.92105263 21.5998329,6.44736842 21.0598371,6.44736842 C20.5198413,6.44736842 19.9798454,5.92105263 19.4398496,4.86842105 C18.8998538,5.92105263 18.359858,6.44736842 17.8198622,6.44736842 C17.2798663,6.44736842 16.7398705,5.92105263 16.1998747,4.86842105 C15.6598789,5.92105263 15.119883,6.44736842 14.5798872,6.44736842 C14.0398914,6.44736842 13.4998956,5.92105263 12.9598997,4.86842105 C12.4199039,5.92105263 11.8799081,6.44736842 11.3399123,6.44736842 C10.7999165,6.44736842 10.2599206,5.92105263 9.71992481,4.86842105 C9.17992899,5.92105263 8.63993317,6.44736842 8.09993734,6.44736842 C7.55994152,6.44736842 7.0199457,5.92105263 6.47994987,4.86842105 C5.93995405,5.92105263 5.39995823,6.44736842 4.85996241,6.44736842 C4.31996658,6.44736842 3.77997076,5.92105263 3.23997494,4.86842105 C2.69997911,5.92105263 2.15998329,6.44736842 1.61998747,6.44736842 C1.07999165,6.44736842 0.539995823,5.92105263 -7.95807864e-13,4.86842105 L-7.95807864e-13,3.91260606 L1.31578947,0 Z" id="path-13"></path>
        <path d="M7.36842105,25.3947368 L6.84210526,25.3947368 L6.84210526,14.8684211 L3.55263158,14.8684211 L3.55263158,25.3947368 L1.31578947,25.3947368 L1.31578947,12.7631579 L31.5789474,12.7631579 L31.5789474,25.3947368 L10.6578947,25.3947368 L10.6578947,14.8684211 L7.36842105,14.8684211 L7.36842105,25.3947368 Z M11.5789474,14.8684211 L11.5789474,21.5789474 L17.1052632,21.5789474 L17.1052632,14.8684211 L11.5789474,14.8684211 Z M18.1578947,14.8684211 L18.1578947,21.5789474 L23.6842105,21.5789474 L23.6842105,14.8684211 L18.1578947,14.8684211 Z M24.7368421,14.8684211 L24.7368421,21.5789474 L30.2631579,21.5789474 L30.2631579,14.8684211 L24.7368421,14.8684211 Z M-6.82121026e-13,4.21052632 L2.62248999,4.21052632 C3.22731909,1.41200851 4.80774221,0.0221140994 7.36375935,0.0408430983 C9.91977648,0.0595720973 11.2538827,1.4494665 11.3660781,4.21052632 L32.5,4.21052632 L32.5,12.2368421 L-6.82121026e-13,12.2368421 L-6.82121026e-13,4.21052632 Z" id="path-15"></path>
        <path d="M27.1052632,43.6842105 L27.1052632,34.4736842 C26.8185599,32.3769274 25.5027704,31.3108594 23.1578947,31.2754801 C20.8130191,31.2401009 19.4972296,32.3061689 19.2105263,34.4736842 L19.2105263,43.6842105 L3.94736842,43.6842105 L3.94736842,17.6315789 L42.8947368,17.6315789 L42.8947368,43.6842105 L27.1052632,43.6842105 Z M5.65789474,19.7368421 L5.65789474,26.8421053 L12.7631579,26.8421053 L12.7631579,19.7368421 L5.65789474,19.7368421 Z M14.8684211,19.7368421 L14.8684211,26.8421053 L21.9736842,26.8421053 L21.9736842,19.7368421 L14.8684211,19.7368421 Z M24.0789474,19.7368421 L24.0789474,26.8421053 L31.1842105,26.8421053 L31.1842105,19.7368421 L24.0789474,19.7368421 Z M33.2894737,19.7368421 L33.2894737,26.8421053 L40.3947368,26.8421053 L40.3947368,19.7368421 L33.2894737,19.7368421 Z M9.60526316,31.5789474 L9.60526316,38.6842105 L16.7105263,38.6842105 L16.7105263,31.5789474 L9.60526316,31.5789474 Z M29.3421053,31.5789474 L29.3421053,38.6842105 L36.4473684,38.6842105 L36.4473684,31.5789474 L29.3421053,31.5789474 Z M1.84210526,15.1315789 L23.4210526,3.28947368 L45,15.1315789 L45,16.5789474 L1.84210526,16.5789474 L1.84210526,15.1315789 Z M7.95807864e-13,13.1578947 L23.3329758,2.84217094e-14 L46.8421053,13.1578947 L46.8421053,14.8684211 L23.3329758,1.71052632 L7.95807864e-13,14.8684211 L7.95807864e-13,13.1578947 Z" id="path-17"></path>
        <path d="M10,65 L9.21052632,65 L9.21052632,50.2383677 L4.47368421,50.2383677 L4.47368421,65 L1.97368421,65 L1.97368421,47.1052632 L42.2368421,47.1052632 L42.2368421,65 L14.7368421,65 L14.7368421,50.2383677 L10,50.2383677 L10,65 Z M1.97368421,5.65789474 L42.2368421,5.65789474 L42.2368421,46.1842105 L1.97368421,46.1842105 L1.97368421,5.65789474 Z M4.47368421,15.5177461 L4.47368421,26.1842105 L14.6052632,26.1842105 L14.6052632,15.5177461 L4.47368421,15.5177461 Z M17.1052632,15.5177461 L17.1052632,26.1842105 L27.2368421,26.1842105 L27.2368421,15.5177461 L17.1052632,15.5177461 Z M29.6052632,15.5177461 L29.6052632,26.1842105 L39.7368421,26.1842105 L39.7368421,15.5177461 L29.6052632,15.5177461 Z M4.47368421,10.780904 L4.47368421,13.944455 L14.6052632,13.944455 L14.6052632,10.780904 L4.47368421,10.780904 Z M17.1052632,10.780904 L17.1052632,13.944455 L27.2368421,13.944455 L27.2368421,10.780904 L17.1052632,10.780904 Z M29.6052632,10.780904 L29.6052632,13.944455 L39.7368421,13.944455 L39.7368421,10.780904 L29.6052632,10.780904 Z M4.47368421,34.2169178 L4.47368421,43.2894737 L14.6052632,43.2894737 L14.6052632,34.2169178 L4.47368421,34.2169178 Z M17.1052632,34.2169178 L17.1052632,43.2894737 L27.2368421,43.2894737 L27.2368421,34.2169178 L17.1052632,34.2169178 Z M29.6052632,34.2169178 L29.6052632,43.2894737 L39.7368421,43.2894737 L39.7368421,34.2169178 L29.6052632,34.2169178 Z M4.47368421,30.4330759 L4.47368421,32.7631579 L14.6052632,32.7631579 L14.6052632,30.4330759 L4.47368421,30.4330759 Z M17.1052632,30.4330759 L17.1052632,32.7631579 L27.2368421,32.7631579 L27.2368421,30.4330759 L17.1052632,30.4330759 Z M29.6052632,30.4330759 L29.6052632,32.7631579 L39.7368421,32.7631579 L39.7368421,30.4330759 L29.6052632,30.4330759 Z M17.6315789,50.3906114 L17.6315789,62.1376812 L27.7631579,62.1376812 L27.7631579,50.3906114 L17.6315789,50.3906114 Z M29.6052632,50.4114055 L29.6052632,62.1104889 L39.7368421,62.1104889 L39.7368421,50.4114055 L29.6052632,50.4114055 Z M1.31578947,2.63157895 L42.8947368,2.63157895 L42.8947368,4.60526316 L1.31578947,4.60526316 L1.31578947,2.63157895 Z M0,-2.84217094e-14 L44.2105263,-2.84217094e-14 L44.2105263,1.97368421 L0,1.97368421 L0,-2.84217094e-14 Z" id="path-19"></path>
        <path d="M27.1052632,43.6842105 L27.1052632,34.4736842 C26.8185599,32.3769274 25.5027704,31.3108594 23.1578947,31.2754801 C20.8130191,31.2401009 19.4972296,32.3061689 19.2105263,34.4736842 L19.2105263,43.6842105 L3.94736842,43.6842105 L3.94736842,17.6315789 L42.8947368,17.6315789 L42.8947368,43.6842105 L27.1052632,43.6842105 Z M5.65789474,19.7368421 L5.65789474,26.8421053 L12.7631579,26.8421053 L12.7631579,19.7368421 L5.65789474,19.7368421 Z M14.8684211,19.7368421 L14.8684211,26.8421053 L21.9736842,26.8421053 L21.9736842,19.7368421 L14.8684211,19.7368421 Z M24.0789474,19.7368421 L24.0789474,26.8421053 L31.1842105,26.8421053 L31.1842105,19.7368421 L24.0789474,19.7368421 Z M33.2894737,19.7368421 L33.2894737,26.8421053 L40.3947368,26.8421053 L40.3947368,19.7368421 L33.2894737,19.7368421 Z M9.60526316,31.5789474 L9.60526316,38.6842105 L16.7105263,38.6842105 L16.7105263,31.5789474 L9.60526316,31.5789474 Z M29.3421053,31.5789474 L29.3421053,38.6842105 L36.4473684,38.6842105 L36.4473684,31.5789474 L29.3421053,31.5789474 Z M1.84210526,15.1315789 L23.4210526,3.28947368 L45,15.1315789 L45,16.5789474 L1.84210526,16.5789474 L1.84210526,15.1315789 Z M6.82121026e-13,13.1578947 L23.3329758,2.84217094e-14 L46.8421053,13.1578947 L46.8421053,14.8684211 L23.3329758,1.71052632 L6.82121026e-13,14.8684211 L6.82121026e-13,13.1578947 Z" id="path-21"></path>
    </defs>
    <g id="SiteHeader" stroke="none" stroke-width="1" fill="none" fill-rule="evenodd" transform="translate(-177.000000, -173.000000)">
        <g id="foreground-buildings" transform="translate(177.000000, 173.000000)">
            <g id="Graphics/Buildings/Building_4" transform="translate(257.000000, 3.000000)">
                <g id="Building" transform="translate(23.394737, 32.315789) rotate(-1.000000) translate(-23.394737, -32.315789) translate(0.894737, 0.815789)">
                    <rect id="Rectangle-8" fill="#FDC0E4" x="2.55263158" y="0.394736842" width="39" height="62"></rect>
                    <mask id="mask-2" fill="white">
                        <use xlink:href="#path-1"></use>
                    </mask>
                    <use id="Mask" fill="#5583D6" xlink:href="#path-1"></use>
                </g>
            </g>
            <g id="Graphics/Buildings/Building_5" transform="translate(323.000000, 8.000000)">
                <g id="Building" transform="translate(0.894737, 0.947368)">
                    <rect id="Path" fill="#FFE6F5" x="2.55263158" y="0.263157895" width="39" height="57"></rect>
                    <mask id="mask-4" fill="white">
                        <use xlink:href="#path-3"></use>
                    </mask>
                    <use id="Mask" fill="#84BAEE" xlink:href="#path-3"></use>
                </g>
            </g>
            <g id="Graphics/Buildings/Building_6" transform="translate(384.000000, 12.000000)">
                <g id="Building" transform="translate(23.289474, 27.473684) rotate(-1.000000) translate(-23.289474, -27.473684) translate(1.289474, 0.473684)">
                    <polygon id="Rectangle-9" fill="#FFC5E8" points="3 12 22 2 41 12 41 54 3 54"></polygon>
                    <mask id="mask-6" fill="white">
                        <use xlink:href="#path-5"></use>
                    </mask>
                    <use id="Mask" fill="#74AADF" xlink:href="#path-5"></use>
                </g>
            </g>
            <g id="Graphics/Buildings/Building_7" transform="translate(429.000000, 24.000000)">
                <g id="Building" transform="translate(0.631579, 0.815789)">
                    <polygon id="Rectangle-9" fill="#FFDDF1" points="2.65789474 11.965587 21.1578947 2.65789474 39.6578947 11.965587 39.6578947 40.6578947 2.65789474 40.6578947"></polygon>
                    <mask id="mask-8" fill="white">
                        <use xlink:href="#path-7"></use>
                    </mask>
                    <use id="Mask" fill="#84BAEE" xlink:href="#path-7"></use>
                </g>
            </g>
            <g id="Graphics/Buildings/Building_1" transform="translate(0.000000, 34.000000)">
                <g id="Building" transform="translate(24.210526, 16.473684) rotate(-1.000000) translate(-24.210526, -16.473684) translate(0.710526, 0.473684)">
                    <polygon id="Rectangle-3" fill="#FFBCE4" points="23.5 0 47 15.2628306 42.2943696 15.2628306 42.2943696 31.5230763 4.42563308 31.5230763 4.42563308 15.2628306 5.68434189e-13 15.2628306"></polygon>
                    <mask id="mask-10" fill="white">
                        <use xlink:href="#path-9"></use>
                    </mask>
                    <use id="Mask" fill="#74AADF" xlink:href="#path-9"></use>
                </g>
            </g>
            <g id="Graphics/Buildings/Building_8" transform="translate(548.000000, 40.000000)">
                <g id="Building" transform="translate(0.552632, 0.105263)">
                    <rect id="Rectangle-10" fill="#FFA9DC" x="2" y="2" width="29" height="24"></rect>
                    <mask id="mask-12" fill="white">
                        <use xlink:href="#path-11"></use>
                    </mask>
                    <use id="Mask" fill="#3766BC" xlink:href="#path-11"></use>
                </g>
            </g>
            <g id="Graphics/Buildings/Building_8" transform="translate(596.000000, 42.000000)">
                <g id="Building" transform="translate(17.052632, 12.684211) rotate(1.000000) translate(-17.052632, -12.684211) translate(0.552632, 1.184211)">
                    <polygon id="Rectangle-10" fill="#FFDCF1" points="2 1 31 1 32 8.03739659 32 22 1 22 1 7.8270092"></polygon>
                    <mask id="mask-14" fill="white">
                        <use xlink:href="#path-13"></use>
                    </mask>
                    <use id="Mask" fill="#84BAEE" xlink:href="#path-13"></use>
                </g>
            </g>
            <g id="Graphics/Buildings/Building_10" transform="translate(647.000000, 40.000000)">
                <g id="Building" transform="translate(17.052632, 14.000000) rotate(-1.000000) translate(-17.052632, -14.000000) translate(0.552632, 1.000000)">
                    <rect id="Rectangle-10" fill="#F2AFD7" x="2" y="6" width="29" height="19"></rect>
                    <mask id="mask-16" fill="white">
                        <use xlink:href="#path-15"></use>
                    </mask>
                    <use id="Mask" fill="#74AADF" xlink:href="#path-15"></use>
                </g>
            </g>
            <g id="Graphics/Buildings/Building_3" transform="translate(198.000000, 22.000000)">
                <g id="Building" transform="translate(0.447368, 0.210526)">
                    <polygon id="Rectangle-3" fill="#FFEBF7" points="23.5 1 47 14.2628306 42.2943696 14.2628306 42.2943696 43.5230763 4.42563308 43.5230763 4.42563308 14.2628306 7.95807864e-13 14.2628306"></polygon>
                    <mask id="mask-18" fill="white">
                        <use xlink:href="#path-17"></use>
                    </mask>
                    <use id="Mask" fill="#3766BC" xlink:href="#path-17"></use>
                </g>
            </g>
            <g id="Graphics/Buildings/Building_2" transform="translate(52.000000, 0.000000)">
                <g id="Building" transform="translate(23.394737, 33.684211) rotate(1.000000) translate(-23.394737, -33.684211) translate(0.894737, 1.184211)">
                    <rect id="Rectangle-6" fill="#FDCCE9" x="2.10526316" y="0.815789474" width="40" height="64"></rect>
                    <mask id="mask-20" fill="white">
                        <use xlink:href="#path-19"></use>
                    </mask>
                    <use id="Mask" fill="#5583D6" xlink:href="#path-19"></use>
                </g>
            </g>
            <g id="Graphics/Buildings/Building_11" transform="translate(703.000000, 22.000000)">
                <g id="Building" transform="translate(23.947368, 23.210526) rotate(1.000000) translate(-23.947368, -23.210526) translate(0.447368, 1.210526)">
                    <polygon id="Rectangle-9" fill="#FABDE1" points="5.55263158 11.097166 24.0526316 1.78947368 42.5526316 11.097166 42.5526316 43.7894737 5.55263158 43.7894737"></polygon>
                    <mask id="mask-22" fill="white">
                        <use xlink:href="#path-21"></use>
                    </mask>
                    <use id="Mask" fill="#3766BC" xlink:href="#path-21"></use>
                </g>
            </g>
        </g>
    </g>
</svg>