<?xml version="1.0" encoding="UTF-8"?>
<svg width="851px" height="169px" viewBox="0 0 851 169" version="1.1" xmlns="http://www.w3.org/2000/svg" xmlns:xlink="http://www.w3.org/1999/xlink">
    <!-- Generator: sketchtool 48.2 (47327) - http://www.bohemiancoding.com/sketch -->
    <title>C906D0F8-8106-4543-A6E0-D6F7FE679F1E</title>
    <desc>Created with sketchtool.</desc>
    <defs></defs>
    <g id="DT_LandingPage" stroke="none" stroke-width="1" fill="none" fill-rule="evenodd" transform="translate(-173.000000, -2132.000000)">
        <g id="New-This-Week" transform="translate(88.000000, 2129.000000)">
            <g id="NewThisWeekPeople" transform="translate(82.000000, 0.000000)">
                <g id="Graphics/Characters/man_4" transform="translate(821.000000, 0.000000)">
                    <path d="M1.6947957,69.3600801 C2.44083569,68.8598305 3.94586093,68.666749 6.20987142,68.7808354 L8.26757613,66.316828 C9.66312439,65.3189747 10.9607506,65.3189747 12.1604548,66.316828 C12.5093101,67.4942858 12.4620589,66.8506748 12.5093101,68.5862349 C12.540811,69.7432749 12.4743624,70.8173211 12.3099642,71.8083736 L1.6947957,71.8083736 C0.948755702,70.6764275 0.948755702,69.8603296 1.6947957,69.3600801 Z" id="Shoe" fill="#63220E" transform="translate(6.826087, 68.688406) rotate(-31.000000) translate(-6.826087, -68.688406) "></path>
                    <path d="M19.3695139,75.7648387 C20.1155539,75.2640888 21.5893946,75.2684116 23.7910359,75.7778072 L25.9422943,72.7185427 C27.3378426,71.7196913 28.6354688,71.7196913 29.835173,72.7185427 C30.1840283,73.8971782 30.136777,73.2529235 30.1840283,74.9902195 C30.2155292,76.1484168 30.1490806,77.2235373 29.9846824,78.215581 L23.8796243,78.8083736 L19.3695139,78.215581 C18.6234739,77.0825027 18.6234739,76.2655886 19.3695139,75.7648387 Z" id="Shoe" fill="#63220E" transform="translate(24.500805, 75.388889) rotate(-53.000000) translate(-24.500805, -75.388889) "></path>
                    <path d="M17.2523751,46.7832557 C19.8550081,48.2718823 20.3373591,47.1571609 20.3373591,45.7660362 C20.3373591,44.3749114 18.5046825,43.247182 16.2439614,43.247182 C13.9832402,43.247182 12.1505636,44.3749114 12.1505636,45.7660362 C12.1505636,47.1571609 14.6497421,45.2946291 17.2523751,46.7832557 Z" id="Hand" fill="#633D1D" transform="translate(16.243961, 45.368760) rotate(-90.000000) translate(-16.243961, -45.368760) "></path>
                    <polygon id="Legs" fill="#95999F" points="16.1751198 44.2206119 31.4602288 44.2206119 31.3309808 51.4959552 23.2245703 61.6425121 27.9094259 70.0604896 23.2245703 74.6669018 16.1751198 59.9443492 23.8176743 51.9498879 8.51059134 55.5899671 11.826087 65.9394225 4.73263463 67.7198532 1.39011612 49.5200334"></polygon>
                    <path d="M15.2665134,16.561546 C16.8054214,13.2576713 23.0525914,12.4468847 25.8963512,16.561546 C28.753262,23.5979684 29.5912962,38.3027766 27.4041082,47.6779658 C21.141285,48.5919712 16.062943,47.8913819 12.1690821,45.5761979 C13.137092,31.9389103 14.1695691,22.2673597 15.2665134,16.561546 Z" id="Torso" fill="#82C1F5" transform="translate(20.405797, 30.918680) rotate(-19.000000) translate(-20.405797, -30.918680) "></path>
                    <path d="M27.5341786,48.6351076 C30.1368116,50.1237342 30.6191626,49.0090128 30.6191626,47.617888 C30.6191626,46.2267632 28.786486,45.0990338 26.5257649,45.0990338 C24.2650437,45.0990338 22.4323671,46.2267632 22.4323671,47.617888 C22.4323671,49.0090128 24.9315457,47.146481 27.5341786,48.6351076 Z" id="Hand" fill="#633D1D" transform="translate(26.525765, 47.220612) rotate(-61.000000) translate(-26.525765, -47.220612) "></path>
                    <g id="Group-10" transform="translate(10.599369, 10.846283) rotate(-16.000000) translate(-10.599369, -10.846283) translate(3.599369, 2.346283)">
                        <ellipse id="Head" fill="#633D1D" cx="6.4589372" cy="9.58132045" rx="6.28985507" ry="7.23832528"></ellipse>
                        <path d="M2.13906127,4.13070293 C2.83539712,3.07860672 3.72369276,2.21717172 4.60835193,1.77914482 C6.47042905,0.857162763 6.59231352,0.613751532 9.02888929,1.39452496 C11.4654651,2.17529839 12.3498786,2.36072665 13.3683048,4.78111461 C13.7704205,5.73678119 13.6196587,7.37485387 13.6196587,8.50847637 C13.6196587,10.2616194 13.0321184,11.8000804 12.0801838,12.9758454 C11.2305046,10.4956762 10.3832508,8.94459126 9.53842233,8.32259068 C8.21983135,7.35178486 7.48533732,10.5376581 6.8643893,10.2191082 C6.14832081,9.85176085 6.62533142,9.19578728 6.8643893,6.95079615 C6.8643893,4.07398544 5.28927996,3.13395437 2.13906127,4.13070293 Z" id="Hair" fill="#000000"></path>
                    </g>
                </g>
                <g id="Graphics/Icons/shoppingCart" transform="translate(81.000000, 150.585799) scale(-1, 1) translate(-81.000000, -150.585799) translate(57.000000, 129.000000)" fill="#D8D8D8">
                    <path d="M36.7810651,29.8453947 L4.32618833,29.8453947 L3.87475998,28.1480263 L36.7810651,28.1480263 L36.7810651,29.8453947 Z M36.7810651,32.3914474 L36.7810651,34.9375 L5.68047337,34.9375 L5.00333085,32.3914474 L36.7810651,32.3914474 Z M36.7810651,25.6019737 L3.19761746,25.6019737 L2.63333203,23.4802632 L36.7810651,23.4802632 L36.7810651,25.6019737 Z M36.7810651,20.9342105 L1.95618951,20.9342105 L1.39190407,18.8125 L36.7810651,18.8125 L36.7810651,20.9342105 Z M36.7810651,16.2664474 L0.71476155,16.2664474 L0,13.5789474 L36.7810651,13.5789474 L36.7810651,16.2664474 Z" id="Combined-Shape"></path>
                    <polygon id="Rectangle-10" transform="translate(40.307873, 8.229242) rotate(38.000000) translate(-40.307873, -8.229242) " points="43.2574853 1.02741344 44.3616549 2.29534188 38.5318885 6.83168294 39.6827764 13.7235192 37.4884876 15.4310712 36.2540904 6.51854936"></polygon>
                    <ellipse id="Oval-2" cx="8.37869822" cy="40.7368421" rx="2.27218935" ry="2.26315789"></ellipse>
                    <ellipse id="Oval-2" cx="34.2248521" cy="40.7368421" rx="2.27218935" ry="2.26315789"></ellipse>
                </g>
                <g id="Graphics/Characters/woman_2" transform="translate(48.000000, 131.000000) scale(-1, 1) translate(-48.000000, -131.000000) translate(26.000000, 86.000000)">
                    <path d="M22.4348476,52.0974061 C23.7580462,47.8081091 27.6490748,47.7546904 34.1079333,51.9371501 L35.5439277,56.098053 L34.0706845,61.9538308 L32.6752788,69.7825756 C32.5800433,70.8021314 32.5445734,71.6397324 32.5688691,72.2953786 C31.4475277,74.1687348 30.1076713,74.4112713 28.5492999,73.0229881 L28.1999754,69.317597 L27.1555157,58.4373273 L23.4368565,68.9513722 L22.3028046,71.3289956 L19.392875,68.5003013 C20.0976582,61.8543348 21.1116491,56.3867031 22.4348476,52.0974061 Z" id="Legs" fill="#000000" transform="translate(27.468401, 61.374607) rotate(-5.000000) translate(-27.468401, -61.374607) "></path>
                    <path d="M26.3264453,82.276216 C27.9934161,82.7014224 29.2955392,81.6777138 30.2328144,79.2050903 C30.3929653,79.1269041 30.7718253,68.2789242 31.0401898,68.1425239 C32.0367635,67.6360004 35.1286746,69.4193016 35.5544953,70.6053446 C35.6295194,70.8143103 33.9536858,79.3750379 33.9516493,79.708323 C33.9405109,81.5312135 33.9273977,83.1713845 33.9123099,84.628836 C33.6475329,84.7930071 33.4644139,84.7930071 33.3629527,84.628836 C33.2614916,84.464665 32.9278094,83.6221639 32.3619063,82.1013327 L31.1383432,84.6099909 L28.7444419,84.6099909 L25.8699721,84.0883532 L26.3264453,82.276216 Z" id="Rectangle-23" fill="#502E05" transform="translate(30.713457, 76.403035) rotate(-16.000000) translate(-30.713457, -76.403035) "></path>
                    <path d="M15.3348076,82.9411328 C17.0017784,83.3663392 18.3039014,82.3426307 19.2411767,79.8700071 C19.4013276,79.791821 19.7801875,68.9438411 20.048552,68.8074408 C21.0451258,68.3009172 24.1370369,70.0842185 24.5628575,71.2702615 C24.6378817,71.4792272 22.9620481,80.0399548 22.9600116,80.3732399 C22.9488731,82.1961304 22.93576,83.8363014 22.9206722,85.2937529 C22.6558952,85.457924 22.4727762,85.457924 22.371315,85.2937529 C22.2698539,85.1295819 21.9361717,84.2870808 21.3702686,82.7662495 L20.1467055,85.2749077 L17.7528042,85.2749077 L14.8783344,84.7532701 L15.3348076,82.9411328 Z" id="Rectangle-23" fill="#502E05" transform="translate(19.721819, 77.067952) rotate(-4.000000) translate(-19.721819, -77.067952) "></path>
                    <path d="M36.7546515,48.4877572 C39.076636,47.6103631 38.5901783,46.785581 37.6730443,46.1231636 C36.7559103,45.4607463 35.0684472,46.0407212 33.9039899,47.4185739 C32.7395327,48.7964265 32.5390376,50.4503922 33.4561716,51.1128095 C34.3733056,51.7752269 34.432667,49.3651513 36.7546515,48.4877572 Z" id="Hand" fill="#D0B174" transform="translate(35.657317, 48.537856) rotate(-72.000000) translate(-35.657317, -48.537856) "></path>
                    <path d="M23.7809943,28.1365275 C25.3919484,24.9392294 29.3258784,23.9116171 32.3027726,27.8935475 C35.2934334,34.7029885 36.3323529,46.3513868 34.0427689,55.4241505 C27.4867432,56.3086719 22.8272465,55.4628353 20.0642787,52.8866408 C23.0626579,47.0950211 24.3015631,38.8449833 23.7809943,28.1365275 Z" id="Torso" fill="#959088" transform="translate(27.675633, 40.532623) rotate(-4.000000) translate(-27.675633, -40.532623) "></path>
                    <path d="M17.5257896,49.7275499 C19.8477741,48.8501557 19.3613164,48.0253736 18.4441824,47.3629563 C17.5270484,46.7005389 15.8395853,47.2805139 14.675128,48.6583665 C13.5106708,50.0362192 13.3101757,51.6901848 14.2273097,52.3526022 C15.1444437,53.0150195 15.2038051,50.604944 17.5257896,49.7275499 Z" id="Hand" fill="#D0B174" transform="translate(16.428455, 49.777649) rotate(-8.000000) translate(-16.428455, -49.777649) "></path>
                    <path d="M18.8090715,30.3567984 C17.7918248,29.0717113 19.8125597,26.8950588 21.2465257,28.7196555 C22.2025031,29.9360533 24.4121882,33.4009617 27.8755813,39.1143807 L26.388647,49.7402035 C26.362919,49.7756019 22.9736078,50.0933206 23.0001957,50.0590116 L23.9737565,38.8811073 C20.965331,34.5161369 19.487236,31.2135231 18.8090715,30.3567984 Z" id="Arm" fill="#959088" transform="translate(23.204480, 39.040990) rotate(40.000000) translate(-23.204480, -39.040990) "></path>
                    <ellipse id="Head" fill="#D0B174" transform="translate(24.944979, 22.184575) rotate(-5.000000) translate(-24.944979, -22.184575) " cx="24.9449791" cy="22.1845745" rx="5.48693587" ry="5.84541063"></ellipse>
                    <path d="M20.6695248,18.6242326 C23.5136677,21.1668849 26.3954322,23.1770909 29.3148184,24.6548506 C29.8061635,24.9035638 30.3351303,24.6198307 30.9017187,23.8036513 C31.3532589,21.9007306 31.3358401,20.3674944 30.8494622,19.2039427 C30.1198952,17.4586152 29.674614,16.5781265 27.5870152,15.8739561 C25.4994164,15.1697857 24.0274757,15.3226111 22.4869072,16.3087387 C21.4598616,16.9661571 20.8540674,17.7379884 20.6695248,18.6242326 Z" id="Path-4" fill="#000000"></path>
                    <path d="M30.8368476,22.0741691 C33.3842586,25.255419 34.8735035,28.7453361 35.3045824,32.5439204 C34.754922,33.7906264 34.6609868,35.3543826 35.0227768,37.2351892 C32.6316144,37.2446469 30.9642025,36.1785405 30.0205409,34.0368698 C30.8251598,31.2794157 30.6866443,27.867698 29.6049944,23.8017167 L30.8368476,22.0741691 Z" id="Rectangle" fill="#000000"></path>
                </g>
                <g id="Graphics/Characters/woman_1" transform="translate(11.500000, 135.500000) scale(-1, 1) translate(-11.500000, -135.500000) translate(0.000000, 99.000000)">
                    <path d="M0.704132979,69.8532954 C2.93852735,69.7737388 4.50306047,68.4564384 5.39773234,65.901394 C6.21831198,65.4677182 7.5670171,63.4092136 7.55106888,66.2346939 C7.54043674,68.1183474 7.70670752,69.9552196 8.04988124,71.7453106 C7.79713959,71.914954 7.62234413,71.914954 7.52549484,71.7453106 C7.42864556,71.5756671 7.11013079,70.7050827 6.56995055,69.1335571 L5.40200394,71.7258372 L0.268408551,71.7258372 L0.704132979,69.8532954 Z" id="Rectangle-23" fill="#000000"></path>
                    <path d="M11.3895981,69.2831231 C13.5541953,69.5629169 15.0838299,68.4252917 15.9785017,65.8702473 C16.7990814,65.4365715 18.1477865,63.3780669 18.1318383,66.2035472 C18.1212061,68.0872007 18.2874769,69.9240729 18.6306506,71.7141639 C18.377909,71.8838073 18.2031135,71.8838073 18.1062642,71.7141639 C18.009415,71.5445204 17.6909002,70.673936 17.15072,69.1024104 L15.9827733,71.6946905 L13.6976857,71.6946905 L10.9538736,71.1556649 L11.3895981,69.2831231 Z" id="Rectangle-23" fill="#000000" transform="translate(14.792262, 68.290793) rotate(-11.000000) translate(-14.792262, -68.290793) "></path>
                    <path d="M4.72045823,36.1138437 C6.44364661,32.809969 11.4469246,31.9487104 14.6312176,36.0633718 C16.2433635,47.5082746 15.0925281,57.8055264 18.2556025,66.9307465 C11.2428218,67.844752 5.55636102,67.1441627 1.19622007,64.8289787 C2.8514888,51.9295215 4.02623486,42.3578099 4.72045823,36.1138437 Z" id="Torso" fill="#1A2F57" transform="translate(9.725911, 50.307514) rotate(-3.000000) translate(-9.725911, -50.307514) "></path>
                    <path d="M4.95966603,14.6743022 C6.49739488,11.3704275 10.962191,10.5091689 13.8037719,14.6238302 C14.3772967,19.1864355 14.5589654,23.5666464 14.7488995,27.7629183 C15.0353989,34.0926333 15.3407047,40.0038294 17.0380795,45.491205 C10.780055,46.4052104 5.70560411,45.7046211 1.81472684,43.3894371 C3.29184594,30.48998 4.34015901,20.9182683 4.95966603,14.6743022 Z" id="Torso" fill="#E4B653"></path>
                    <path d="M13.3594192,36.908064 C15.5636191,38.1690183 15.9721278,37.2247837 15.9721278,36.0464192 C15.9721278,34.8680547 14.4200128,33.9128015 12.5053819,33.9128015 C10.5907511,33.9128015 9.03863611,34.8680547 9.03863611,36.0464192 C9.03863611,37.2247837 11.1552193,35.6471097 13.3594192,36.908064 Z" id="Hand" fill="#F6E6CA" transform="translate(12.505382, 35.709903) rotate(-82.000000) translate(-12.505382, -35.709903) "></path>
                    <path d="M15.3107274,17.7012271 C15.3047789,15.9594678 18.3512493,15.2343849 18.3512493,17.7012271 C18.3512493,19.3457885 17.9320736,23.7251739 17.0937222,30.8393831 L10.3588613,33.3091612 C9.42568813,33.6513703 8.39178653,33.1722992 8.04957745,32.2391261 C8.04009568,32.2132702 8.03120865,32.1872 8.02292338,32.1609362 L8.02292338,32.1609362 C7.70840479,31.1639319 8.25191458,30.0989828 9.24381688,29.7687264 L14.7998151,27.9188424 C15.144389,22.2682717 15.3146931,18.8623999 15.3107274,17.7012271 Z" id="Arm" fill="#E4B653" transform="translate(12.914195, 25.022086) rotate(-34.000000) translate(-12.914195, -25.022086) "></path>
                    <ellipse id="Head" fill="#F6E6CA" cx="8.39904988" cy="7.7379291" rx="5.78622328" ry="6.66385502"></ellipse>
                    <path d="M3.89186481,3.5587594 C4.95250562,2.04347369 6.57747953,1.07407407 8.39904988,1.07407407 C10.0947307,1.07407407 12.14799,1.17037851 13.2063062,2.50882086 C14.1424696,3.69277761 14.1852732,6.01045864 14.1852732,7.7379291 C14.1852732,9.57407399 13.5404601,11.2367717 12.4973977,12.4420608 C11.599276,9.31123604 10.7924113,7.68200717 10.0768037,7.55437423 C9.35358524,7.42538384 9.00804595,7.74946598 9.04018583,8.52662067 L7.98935328,8.52662067 C8.23381788,8.03048 8.2171908,7.28108987 7.93947204,6.2784503 C7.28803091,4.61063176 5.9388285,3.70406812 3.89186481,3.5587594 Z" id="Combined-Shape" fill="#422E0D"></path>
                    <ellipse id="Oval-9" fill="#422E0D" cx="13.8361045" cy="2.69645733" rx="1.79572447" ry="1.97181965"></ellipse>
                </g>
            </g>
        </g>
    </g>
</svg>