<?xml version="1.0" encoding="UTF-8"?>
<svg width="644px" height="20px" viewBox="0 0 644 20" version="1.1" xmlns="http://www.w3.org/2000/svg" xmlns:xlink="http://www.w3.org/1999/xlink">
    <!-- Generator: sketchtool 48.2 (47327) - http://www.bohemiancoding.com/sketch -->
    <title>E769C6CC-86E5-425F-989D-47E1DECE102F</title>
    <desc>Created with sketchtool.</desc>
    <defs></defs>
    <g id="SiteHeader" stroke="none" stroke-width="1" fill="none" fill-rule="evenodd" transform="translate(-224.000000, -222.000000)">
        <g id="People" transform="translate(222.000000, 218.000000)">
            <g id="Graphics/Characters/man_1" transform="translate(9.981651, 13.511723) scale(-1, 1) translate(-9.981651, -13.511723) translate(6.000000, 4.000000)">
                <path d="M1.84521282,17.4391561 C1.98720679,17.3369546 2.27365861,17.2975079 2.70456828,17.3208158 L3.09621172,16.8174165 C3.36182676,16.613554 3.60880427,16.613554 3.83714426,16.8174165 C3.90354198,17.0579724 3.89454863,16.926482 3.90354198,17.2810587 C3.90953754,17.5174433 3.89689036,17.7368721 3.86560043,17.9393451 L1.84521282,17.9393451 C1.70321885,17.7080873 1.70321885,17.5413577 1.84521282,17.4391561 Z" id="Shoe" fill="#000000"></path>
                <path d="M4.82858574,17.3175477 C4.97057972,17.2152439 5.25109617,17.2161271 5.6701351,17.3201972 L6.07958464,16.6951861 C6.34519968,16.4911197 6.59217719,16.4911197 6.82051719,16.6951861 C6.8869149,16.9359827 6.87792155,16.8043607 6.8869149,17.1592922 C6.89291047,17.3959131 6.88026328,17.6155614 6.84897335,17.818237 L5.68699615,17.9393451 L4.82858574,17.818237 C4.68659177,17.5867479 4.68659177,17.4198514 4.82858574,17.3175477 Z" id="Shoe" fill="#000000" transform="translate(5.805226, 17.240741) rotate(-9.000000) translate(-5.805226, -17.240741) "></path>
                <polygon id="Legs" fill="#959088" points="3.64960521 10.0558239 6.55882372 10.0558239 6.53422391 11.5421844 6.59727823 14.2037642 6.88836105 16.9265356 5.56231956 17.1744498 5.18522015 14.1971275 5.10421447 11.6349233 4.08307574 17.2968331 2.82185273 17.1611035"></polygon>
                <path d="M4.23799091,4.20074596 C4.53089164,3.52576081 5.71991702,3.36011623 6.26117052,4.20074596 C6.80492703,5.63829463 6.96443029,8.64250275 6.54814228,10.557864 C5.35613761,10.7445963 4.38957554,10.6014651 3.64845606,10.1284705 C3.83269761,7.34235802 4.02920923,5.36644982 4.23799091,4.20074596 Z" id="Torso" fill="#578DCD"></path>
                <path d="M2.59573211,8.58554766 C3.09109187,8.88967567 3.18289786,8.6619369 3.18289786,8.37772861 C3.18289786,8.09352033 2.83408408,7.86312399 2.40380048,7.86312399 C1.97351687,7.86312399 1.62470309,8.09352033 1.62470309,8.37772861 C1.62470309,8.6619369 2.10037234,8.28141965 2.59573211,8.58554766 Z" id="Hand" fill="#F6E6CA"></path>
                <path d="M4.53073947,4.82032006 C4.52939852,4.39968739 5.21615202,4.22458076 5.21615202,4.82032006 C5.21615202,5.2174796 5.12165894,6.27509569 4.93267278,7.99316833 L3.43672932,8.58086801 C3.2237897,8.66452394 2.9833515,8.55971881 2.89969557,8.34677919 C2.89525348,8.33547219 2.89131092,8.32397527 2.88787933,8.31232175 L2.88787933,8.31232175 C2.81617021,8.06880094 2.94708079,7.81165853 3.18618492,7.726372 L4.41556658,7.2878614 C4.49324248,5.92325563 4.53163344,5.10074185 4.53073947,4.82032006 Z" id="Arm" fill="#578DCD"></path>
                <ellipse id="Head" fill="#F6E6CA" cx="4.8456057" cy="2.36607622" rx="1.19714964" ry="1.47879764"></ellipse>
                <path d="M3.80047507,1.46792089 C3.84192992,1.17136283 3.93345231,0.909915885 4.13100241,0.749569426 C4.31919539,0.596817909 4.7223663,0.591519055 4.96419899,0.591519055 C5.4379387,0.591519055 5.96683,0.890901143 6.16066732,1.38538901 C6.23720209,1.58063272 6.20850756,1.91529273 6.20850756,2.14689302 C6.20850756,2.50506203 6.09668087,2.81937127 5.91549893,3.05958132 C5.75377928,2.55288008 5.59252125,2.23599176 5.43172485,2.10891638 C5.18075711,1.9105797 5.04096069,2.56145704 4.9227755,2.49637694 C4.78648601,2.42132749 4.87727555,2.28731138 4.9227755,1.82865728 C4.39943477,1.7746203 4.02533463,1.65437483 3.80047507,1.46792089 Z" id="Hair" fill="#422E0D"></path>
            </g>
            <g id="Graphics/Characters/woman_1" transform="translate(273.000000, 3.000000)">
                <path d="M3.2628888,20.0728226 C3.79488747,20.0540027 4.16739535,19.7423833 4.38041246,19.1379642 C4.57578857,19.0353742 4.89690883,18.5484161 4.89311164,19.2168093 C4.89058018,19.6624048 4.93016846,20.0969337 5.01187648,20.520396 C4.9516999,20.5605267 4.91008194,20.5605267 4.88702258,20.520396 C4.86396323,20.4802653 4.78812638,20.2743206 4.65951204,19.9025619 L4.38142951,20.5157894 L3.15914489,20.5157894 L3.2628888,20.0728226 Z" id="Rectangle-23" fill="#000000"></path>
                <path d="M5.80704716,19.9379431 C6.32242746,20.0041309 6.68662616,19.7350152 6.89964327,19.1305961 C7.09501938,19.0280062 7.41613964,18.5410481 7.41234245,19.2094413 C7.40981099,19.6550367 7.44939927,20.0895656 7.5311073,20.513028 C7.47093071,20.5531587 7.42931275,20.5531587 7.40625339,20.513028 C7.38319404,20.4728973 7.30735719,20.2669526 7.17874285,19.8951939 L6.90066032,20.5084214 L6.35659184,20.5084214 L5.70330324,20.38091 L5.80704716,19.9379431 Z" id="Rectangle-23" fill="#000000" transform="translate(6.617205, 19.703198) rotate(-11.000000) translate(-6.617205, -19.703198) "></path>
                <path d="M4.21915672,12.0914469 C4.62943967,11.3098851 5.82069632,11.1061466 6.57886132,12.0795073 C6.96270561,14.7869037 6.68869716,17.2228127 7.44181012,19.3814669 C5.77210043,19.5976833 4.41818119,19.4319525 3.3800524,18.8842745 C3.774164,15.83279 4.05386544,13.5685142 4.21915672,12.0914469 Z" id="Torso" fill="#1A2F57" transform="translate(5.410931, 15.449089) rotate(-3.000000) translate(-5.410931, -15.449089) "></path>
                <path d="M4.27611096,7.01972739 C4.64223688,6.23816564 5.70528357,6.03442705 6.38185045,7.00778779 C6.72438319,9.71518416 6.47986512,12.1510932 7.15192369,14.3097474 C5.66191786,14.5259638 4.45371526,14.360233 3.52731591,13.812555 C3.87901094,10.7610705 4.12860929,8.49679466 4.27611096,7.01972739 Z" id="Torso" fill="#578DCD"></path>
                <path d="M6.27605219,12.279327 C6.80086169,12.5776172 6.89812566,12.3542499 6.89812566,12.075497 C6.89812566,11.7967441 6.52857448,11.5707702 6.07270999,11.5707702 C5.6168455,11.5707702 5.24729431,11.7967441 5.24729431,12.075497 C5.24729431,12.3542499 5.75124268,11.9810367 6.27605219,12.279327 Z" id="Hand" fill="#F6E6CA" transform="translate(6.072710, 11.995891) rotate(-82.000000) translate(-6.072710, -11.995891) "></path>
                <path d="M6.74064938,7.73577415 C6.73923306,7.32374508 7.46458317,7.15222008 7.46458317,7.73577415 C7.46458317,8.12481019 7.36477944,9.16079382 7.16517196,10.843725 L5.55948244,11.4287574 C5.33755761,11.5096156 5.09210344,11.3952586 5.01124521,11.1733337 C5.00919757,11.1677137 5.00726806,11.1620514 5.00545795,11.1563505 L5.00545795,11.1563505 C4.93065442,10.9207578 5.05924589,10.6688193 5.2939218,10.5911875 L6.61900359,10.1528444 C6.70104499,8.81615029 6.74159359,8.01046019 6.74064938,7.73577415 Z" id="Arm" fill="#578DCD" transform="translate(6.170046, 9.467590) rotate(-34.000000) translate(-6.170046, -9.467590) "></path>
                <ellipse id="Head" fill="#F6E6CA" cx="5.09501188" cy="5.37886495" rx="1.37767221" ry="1.57639581"></ellipse>
                <path d="M4.02187257,4.39024416 C4.2744061,4.03178948 4.66130465,3.80246914 5.09501188,3.80246914 C5.4987454,3.80246914 5.98761666,3.82525083 6.23959672,4.1418716 C6.46249276,4.42194739 6.47268409,4.97021602 6.47268409,5.37886495 C6.47268409,5.8132218 6.31915718,6.20654814 6.07080897,6.49167031 C5.85697047,5.75104509 5.66485983,5.36563611 5.49447707,5.33544337 C5.3222822,5.30492951 5.24001094,5.3815941 5.24766329,5.56543715 L4.99746507,5.56543715 C5.05567092,5.44807054 5.05171209,5.27079545 4.98558858,5.0336119 C4.83048355,4.63907418 4.50924488,4.42461827 4.02187257,4.39024416 Z" id="Combined-Shape" fill="#422E0D"></path>
                <ellipse id="Oval-9" fill="#422E0D" cx="6.38954869" cy="4.18625872" rx="1" ry="1"></ellipse>
            </g>
            <g id="Graphics/Characters/woman_1" transform="translate(458.000000, 14.062945) scale(-1, 1) translate(-458.000000, -14.062945) translate(453.000000, 3.000000)">
                <path d="M3.2628888,20.0728226 C3.79488747,20.0540027 4.16739535,19.7423833 4.38041246,19.1379642 C4.57578857,19.0353742 4.89690883,18.5484161 4.89311164,19.2168093 C4.89058018,19.6624048 4.93016846,20.0969337 5.01187648,20.520396 C4.9516999,20.5605267 4.91008194,20.5605267 4.88702258,20.520396 C4.86396323,20.4802653 4.78812638,20.2743206 4.65951204,19.9025619 L4.38142951,20.5157894 L3.15914489,20.5157894 L3.2628888,20.0728226 Z" id="Rectangle-23" fill="#000000"></path>
                <path d="M5.80704716,19.9379431 C6.32242746,20.0041309 6.68662616,19.7350152 6.89964327,19.1305961 C7.09501938,19.0280062 7.41613964,18.5410481 7.41234245,19.2094413 C7.40981099,19.6550367 7.44939927,20.0895656 7.5311073,20.513028 C7.47093071,20.5531587 7.42931275,20.5531587 7.40625339,20.513028 C7.38319404,20.4728973 7.30735719,20.2669526 7.17874285,19.8951939 L6.90066032,20.5084214 L6.35659184,20.5084214 L5.70330324,20.38091 L5.80704716,19.9379431 Z" id="Rectangle-23" fill="#000000" transform="translate(6.617205, 19.703198) rotate(-11.000000) translate(-6.617205, -19.703198) "></path>
                <path d="M4.21915672,12.0914469 C4.62943967,11.3098851 5.82069632,11.1061466 6.57886132,12.0795073 C6.96270561,14.7869037 6.68869716,17.2228127 7.44181012,19.3814669 C5.77210043,19.5976833 4.41818119,19.4319525 3.3800524,18.8842745 C3.774164,15.83279 4.05386544,13.5685142 4.21915672,12.0914469 Z" id="Torso" fill="#1A2F57" transform="translate(5.410931, 15.449089) rotate(-3.000000) translate(-5.410931, -15.449089) "></path>
                <path d="M4.27611096,7.01972739 C4.64223688,6.23816564 5.70528357,6.03442705 6.38185045,7.00778779 C6.72438319,9.71518416 6.47986512,12.1510932 7.15192369,14.3097474 C5.66191786,14.5259638 4.45371526,14.360233 3.52731591,13.812555 C3.87901094,10.7610705 4.12860929,8.49679466 4.27611096,7.01972739 Z" id="Torso" fill="#578DCD"></path>
                <path d="M6.27605219,12.279327 C6.80086169,12.5776172 6.89812566,12.3542499 6.89812566,12.075497 C6.89812566,11.7967441 6.52857448,11.5707702 6.07270999,11.5707702 C5.6168455,11.5707702 5.24729431,11.7967441 5.24729431,12.075497 C5.24729431,12.3542499 5.75124268,11.9810367 6.27605219,12.279327 Z" id="Hand" fill="#F6E6CA" transform="translate(6.072710, 11.995891) rotate(-82.000000) translate(-6.072710, -11.995891) "></path>
                <path d="M6.74064938,7.73577415 C6.73923306,7.32374508 7.46458317,7.15222008 7.46458317,7.73577415 C7.46458317,8.12481019 7.36477944,9.16079382 7.16517196,10.843725 L5.55948244,11.4287574 C5.33755761,11.5096156 5.09210344,11.3952586 5.01124521,11.1733337 C5.00919757,11.1677137 5.00726806,11.1620514 5.00545795,11.1563505 L5.00545795,11.1563505 C4.93065442,10.9207578 5.05924589,10.6688193 5.2939218,10.5911875 L6.61900359,10.1528444 C6.70104499,8.81615029 6.74159359,8.01046019 6.74064938,7.73577415 Z" id="Arm" fill="#578DCD" transform="translate(6.170046, 9.467590) rotate(-34.000000) translate(-6.170046, -9.467590) "></path>
                <ellipse id="Head" fill="#F6E6CA" cx="5.09501188" cy="5.37886495" rx="1.37767221" ry="1.57639581"></ellipse>
                <path d="M4.02187257,4.39024416 C4.2744061,4.03178948 4.66130465,3.80246914 5.09501188,3.80246914 C5.4987454,3.80246914 5.98761666,3.82525083 6.23959672,4.1418716 C6.46249276,4.42194739 6.47268409,4.97021602 6.47268409,5.37886495 C6.47268409,5.8132218 6.31915718,6.20654814 6.07080897,6.49167031 C5.85697047,5.75104509 5.66485983,5.36563611 5.49447707,5.33544337 C5.3222822,5.30492951 5.24001094,5.3815941 5.24766329,5.56543715 L4.99746507,5.56543715 C5.05567092,5.44807054 5.05171209,5.27079545 4.98558858,5.0336119 C4.83048355,4.63907418 4.50924488,4.42461827 4.02187257,4.39024416 Z" id="Combined-Shape" fill="#422E0D"></path>
                <ellipse id="Oval-9" fill="#422E0D" cx="6.38954869" cy="4.18625872" rx="1" ry="1"></ellipse>
            </g>
            <g id="Graphics/Characters/woman_1" transform="translate(117.500000, 12.956651) scale(-1, 1) translate(-117.500000, -12.956651) translate(113.000000, 3.000000)">
                <path d="M2.93659992,18.2480205 C3.41539872,18.2309116 3.75065582,17.9476212 3.94237121,17.3981493 C4.11820971,17.3048856 4.40721795,16.8621965 4.40380048,17.4698266 C4.40152216,17.8749134 4.43715161,18.2699397 4.51068884,18.6549055 C4.45652991,18.6913879 4.41907374,18.6913879 4.39832032,18.6549055 C4.37756691,18.618423 4.30931374,18.4312006 4.19356083,18.0932381 L3.94328656,18.6507177 L2.8432304,18.6507177 L2.93659992,18.2480205 Z" id="Rectangle-23" fill="#000000"></path>
                <path d="M5.22634244,18.1254028 C5.69018471,18.1855735 6.01796355,17.9409229 6.20967894,17.391451 C6.38551744,17.2981874 6.67452568,16.8554983 6.6711082,17.4631284 C6.66882989,17.8682152 6.70445934,18.2632415 6.77799657,18.6482073 C6.72383764,18.6846897 6.68638147,18.6846897 6.66562805,18.6482073 C6.64487463,18.6117248 6.57662147,18.4245024 6.46086856,18.0865399 L6.21059429,18.6440195 L5.72093266,18.6440195 L5.13297292,18.5281 L5.22634244,18.1254028 Z" id="Rectangle-23" fill="#000000" transform="translate(5.955485, 17.911999) rotate(-11.000000) translate(-5.955485, -17.911999) "></path>
                <path d="M3.79724105,10.9922245 C4.1664957,10.2817138 5.23862669,10.0964969 5.92097519,10.9813703 C6.26643505,13.4426397 6.01982744,15.6571025 6.69762911,17.6195154 C5.19489039,17.8160757 3.97636308,17.6654113 3.04204716,17.1675223 C3.3967476,14.3934455 3.6484789,12.3350129 3.79724105,10.9922245 Z" id="Torso" fill="#1A2F57" transform="translate(4.869838, 14.044627) rotate(-3.000000) translate(-4.869838, -14.044627) "></path>
                <path d="M3.84849986,6.38157036 C4.17801319,5.67105967 5.13475522,5.48584277 5.74366541,6.37071618 C6.05194487,8.8319856 5.83187861,11.0464484 6.43673132,13.0088613 C5.09572607,13.2054216 4.00834374,13.0547572 3.17458432,12.5568682 C3.49110985,9.78279139 3.71574836,7.72435878 3.84849986,6.38157036 Z" id="Torso" fill="#578DCD"></path>
                <path d="M5.64844697,11.1630245 C6.12077553,11.4341975 6.2083131,11.2311363 6.2083131,10.9777246 C6.2083131,10.7243128 5.87571703,10.518882 5.46543899,10.518882 C5.05516095,10.518882 4.72256488,10.7243128 4.72256488,10.9777246 C4.72256488,11.2311363 5.17611842,10.8918515 5.64844697,11.1630245 Z" id="Hand" fill="#F6E6CA" transform="translate(5.465439, 10.905355) rotate(-82.000000) translate(-5.465439, -10.905355) "></path>
                <path d="M6.06658444,7.03252195 C6.06530975,6.65795007 6.71812486,6.50201826 6.71812486,7.03252195 C6.71812486,7.38619108 6.62830149,8.32799439 6.44865477,9.85793186 L5.00654445,10.3886716 C4.80644994,10.4623124 4.58454365,10.3598013 4.51090288,10.1597068 C4.50876544,10.153899 4.50676795,10.1480407 4.50491215,10.1421368 L4.50491215,10.1421368 C4.4374747,9.92759811 4.554348,9.69858358 4.76764356,9.62731173 L5.95710323,9.22985859 C6.03094049,8.01468208 6.06743423,7.28223654 6.06658444,7.03252195 Z" id="Arm" fill="#578DCD" transform="translate(5.553042, 8.606900) rotate(-34.000000) translate(-5.553042, -8.606900) "></path>
                <ellipse id="Head" fill="#F6E6CA" cx="4.58551069" cy="4.88987722" rx="1.23990499" ry="1.4330871"></ellipse>
                <path d="M3.61968532,3.99113105 C3.84696549,3.66526316 4.19517419,3.45679012 4.58551069,3.45679012 C4.94887086,3.45679012 5.388855,3.47750076 5.61563705,3.76533782 C5.81624349,4.01995217 5.82541568,4.5183782 5.82541568,4.88987722 C5.82541568,5.28474709 5.68724146,5.64231649 5.46372807,5.90151846 C5.27127342,5.2282228 5.09837385,4.877851 4.94502936,4.85040306 C4.79005398,4.82266319 4.71600985,4.89235828 4.72289696,5.05948832 L4.49771856,5.05948832 C4.55010383,4.9527914 4.54654089,4.79163223 4.48702972,4.57601082 C4.34743519,4.21734016 4.05832039,4.02238024 3.61968532,3.99113105 Z" id="Combined-Shape" fill="#422E0D"></path>
                <ellipse id="Oval-9" fill="#422E0D" cx="5.75059382" cy="3.80568975" rx="1" ry="1"></ellipse>
            </g>
            <g id="Graphics/Characters/woman_4" transform="translate(5.000000, 14.062945) scale(-1, 1) translate(-5.000000, -14.062945) translate(0.000000, 3.000000)">
                <path d="M2.79970591,19.88388 C3.33170457,19.8650602 3.70421245,19.5534407 3.91722956,18.9490216 C3.95380929,18.929814 3.5798901,16.8441707 3.62232779,16.808121 C3.78605577,16.6690385 4.39288369,16.6147348 4.42992874,16.9556906 C4.4345667,16.9983775 4.43027214,18.9674205 4.42992874,19.0278667 C4.42739728,19.4734622 4.46698556,19.9079911 4.54869359,20.3314535 C4.48851701,20.3715842 4.44689904,20.3715842 4.42383968,20.3314535 C4.40078033,20.2913228 4.32494348,20.0853781 4.19632914,19.7136193 L3.91824661,20.3268469 L2.695962,20.3268469 L2.79970591,19.88388 Z" id="Rectangle-23" fill="#000000"></path>
                <path d="M4.76573465,19.7627421 C5.28111495,19.8289299 5.64531365,19.5598142 5.85833076,18.9553951 C5.89452504,18.9363899 5.61725971,16.7528074 5.65921966,16.717209 C5.82711349,16.5747693 6.52469105,16.3411056 6.55547168,16.7168456 C6.55852333,16.7540972 6.37130899,18.9851204 6.37102994,19.0342403 C6.36849848,19.4798357 6.40808676,19.9143646 6.48979478,20.337827 C6.4296182,20.3779577 6.38800024,20.3779577 6.36494088,20.337827 C6.34188153,20.2976963 6.26604468,20.0917516 6.13743034,19.7199928 L5.85934781,20.3332204 L5.31527933,20.3332204 L4.66199073,20.205709 L4.76573465,19.7627421 Z" id="Rectangle-23" fill="#000000" transform="translate(5.608750, 18.440778) rotate(-11.000000) translate(-5.608750, -18.440778) "></path>
                <path d="M3.7021322,11.7344783 C4.11241515,11.1515837 5.30367181,10.999634 6.0618368,11.7255736 C6.44568109,13.7447699 6.17167264,15.5614889 6.9247856,17.1714292 C5.25507592,17.3326849 3.90115668,17.2090817 2.86302788,16.8006194 C3.25713948,14.5247997 3.53684092,12.836086 3.7021322,11.7344783 Z" id="Torso" fill="#1A2F57" transform="translate(4.893907, 14.238633) rotate(-11.000000) translate(-4.893907, -14.238633) "></path>
                <path d="M3.81292806,6.76667988 C4.17905398,6.06028609 5.24210068,5.87614239 5.91866756,6.75588859 C6.26120029,9.20289674 6.01668222,11.4045283 6.68874079,13.3555705 C5.19873496,13.5509918 3.99053237,13.4012005 3.06413302,12.9061964 C3.41582804,10.1481933 3.66542639,8.10168782 3.81292806,6.76667988 Z" id="Torso" fill="#D2C69F" transform="translate(4.876437, 9.801396) rotate(5.000000) translate(-4.876437, -9.801396) "></path>
                <path d="M5.04277106,11.7236367 C5.56758056,12.021927 5.66484453,11.7985597 5.66484453,11.5198068 C5.66484453,11.2410539 5.29529335,11.01508 4.83942886,11.01508 C4.38356436,11.01508 4.01401318,11.2410539 4.01401318,11.5198068 C4.01401318,11.7985597 4.51796155,11.4253465 5.04277106,11.7236367 Z" id="Hand" fill="#633D1D" transform="translate(4.839429, 11.440201) rotate(-427.000000) translate(-4.839429, -11.440201) "></path>
                <path d="M6.15768155,7.29256272 C6.15626524,6.88053366 6.88161535,6.70900866 6.88161535,7.29256272 C6.88161535,7.68159877 6.78181161,8.7175824 6.58220414,10.4005136 L4.97651462,10.985546 C4.75458978,11.0664042 4.50913561,10.9520471 4.42827738,10.7301223 C4.42622975,10.7245023 4.42430024,10.71884 4.42249013,10.7131391 L4.42249013,10.7131391 C4.34768659,10.4775464 4.47627807,10.2256079 4.71095398,10.147976 L6.03603577,9.70963302 C6.11807717,8.37293887 6.15862577,7.56724877 6.15768155,7.29256272 Z" id="Arm" fill="#D2C69F" transform="translate(5.587079, 9.024379) rotate(-379.000000) translate(-5.587079, -9.024379) "></path>
                <ellipse id="Head" fill="#633D1D" cx="4.63182898" cy="5.30801149" rx="1.37767221" ry="1.57639581"></ellipse>
                <path d="M3.56294537,4.3193907 C3.81547889,3.96093601 4.20237745,3.73161567 4.63608467,3.73161567 C5.0398182,3.73161567 5.52868946,3.75439737 5.78066952,4.07101814 C6.00356556,4.35109393 6.01375688,4.89936256 6.01375688,5.30801149 C6.01375688,5.74236834 5.86022997,6.13569468 5.61188177,6.42081684 C5.39804326,5.68019162 5.20593263,5.29478264 5.03554987,5.2645899 C4.86335499,5.23407605 4.78108374,5.31074064 4.78873609,5.49458368 L4.53853786,5.49458368 C4.59674372,5.37721707 4.59278489,5.19994199 4.52666138,4.96275844 C4.37155634,4.56822072 4.05031767,4.3537648 3.56294537,4.3193907 Z" id="Combined-Shape" fill="#000000"></path>
                <ellipse id="Oval-9" fill="#000000" cx="5.9263658" cy="4.11540526" rx="1" ry="1"></ellipse>
            </g>
            <g id="Graphics/Characters/woman_4" transform="translate(316.000000, 14.062945) scale(-1, 1) translate(-316.000000, -14.062945) translate(311.000000, 3.000000)">
                <path d="M2.79970591,19.88388 C3.33170457,19.8650602 3.70421245,19.5534407 3.91722956,18.9490216 C3.95380929,18.929814 3.5798901,16.8441707 3.62232779,16.808121 C3.78605577,16.6690385 4.39288369,16.6147348 4.42992874,16.9556906 C4.4345667,16.9983775 4.43027214,18.9674205 4.42992874,19.0278667 C4.42739728,19.4734622 4.46698556,19.9079911 4.54869359,20.3314535 C4.48851701,20.3715842 4.44689904,20.3715842 4.42383968,20.3314535 C4.40078033,20.2913228 4.32494348,20.0853781 4.19632914,19.7136193 L3.91824661,20.3268469 L2.695962,20.3268469 L2.79970591,19.88388 Z" id="Rectangle-23" fill="#000000"></path>
                <path d="M4.76573465,19.7627421 C5.28111495,19.8289299 5.64531365,19.5598142 5.85833076,18.9553951 C5.89452504,18.9363899 5.61725971,16.7528074 5.65921966,16.717209 C5.82711349,16.5747693 6.52469105,16.3411056 6.55547168,16.7168456 C6.55852333,16.7540972 6.37130899,18.9851204 6.37102994,19.0342403 C6.36849848,19.4798357 6.40808676,19.9143646 6.48979478,20.337827 C6.4296182,20.3779577 6.38800024,20.3779577 6.36494088,20.337827 C6.34188153,20.2976963 6.26604468,20.0917516 6.13743034,19.7199928 L5.85934781,20.3332204 L5.31527933,20.3332204 L4.66199073,20.205709 L4.76573465,19.7627421 Z" id="Rectangle-23" fill="#000000" transform="translate(5.608750, 18.440778) rotate(-11.000000) translate(-5.608750, -18.440778) "></path>
                <path d="M3.7021322,11.7344783 C4.11241515,11.1515837 5.30367181,10.999634 6.0618368,11.7255736 C6.44568109,13.7447699 6.17167264,15.5614889 6.9247856,17.1714292 C5.25507592,17.3326849 3.90115668,17.2090817 2.86302788,16.8006194 C3.25713948,14.5247997 3.53684092,12.836086 3.7021322,11.7344783 Z" id="Torso" fill="#1A2F57" transform="translate(4.893907, 14.238633) rotate(-11.000000) translate(-4.893907, -14.238633) "></path>
                <path d="M3.81292806,6.76667988 C4.17905398,6.06028609 5.24210068,5.87614239 5.91866756,6.75588859 C6.26120029,9.20289674 6.01668222,11.4045283 6.68874079,13.3555705 C5.19873496,13.5509918 3.99053237,13.4012005 3.06413302,12.9061964 C3.41582804,10.1481933 3.66542639,8.10168782 3.81292806,6.76667988 Z" id="Torso" fill="#D2C69F" transform="translate(4.876437, 9.801396) rotate(5.000000) translate(-4.876437, -9.801396) "></path>
                <path d="M5.04277106,11.7236367 C5.56758056,12.021927 5.66484453,11.7985597 5.66484453,11.5198068 C5.66484453,11.2410539 5.29529335,11.01508 4.83942886,11.01508 C4.38356436,11.01508 4.01401318,11.2410539 4.01401318,11.5198068 C4.01401318,11.7985597 4.51796155,11.4253465 5.04277106,11.7236367 Z" id="Hand" fill="#633D1D" transform="translate(4.839429, 11.440201) rotate(-427.000000) translate(-4.839429, -11.440201) "></path>
                <path d="M6.15768155,7.29256272 C6.15626524,6.88053366 6.88161535,6.70900866 6.88161535,7.29256272 C6.88161535,7.68159877 6.78181161,8.7175824 6.58220414,10.4005136 L4.97651462,10.985546 C4.75458978,11.0664042 4.50913561,10.9520471 4.42827738,10.7301223 C4.42622975,10.7245023 4.42430024,10.71884 4.42249013,10.7131391 L4.42249013,10.7131391 C4.34768659,10.4775464 4.47627807,10.2256079 4.71095398,10.147976 L6.03603577,9.70963302 C6.11807717,8.37293887 6.15862577,7.56724877 6.15768155,7.29256272 Z" id="Arm" fill="#D2C69F" transform="translate(5.587079, 9.024379) rotate(-379.000000) translate(-5.587079, -9.024379) "></path>
                <ellipse id="Head" fill="#633D1D" cx="4.63182898" cy="5.30801149" rx="1.37767221" ry="1.57639581"></ellipse>
                <path d="M3.56294537,4.3193907 C3.81547889,3.96093601 4.20237745,3.73161567 4.63608467,3.73161567 C5.0398182,3.73161567 5.52868946,3.75439737 5.78066952,4.07101814 C6.00356556,4.35109393 6.01375688,4.89936256 6.01375688,5.30801149 C6.01375688,5.74236834 5.86022997,6.13569468 5.61188177,6.42081684 C5.39804326,5.68019162 5.20593263,5.29478264 5.03554987,5.2645899 C4.86335499,5.23407605 4.78108374,5.31074064 4.78873609,5.49458368 L4.53853786,5.49458368 C4.59674372,5.37721707 4.59278489,5.19994199 4.52666138,4.96275844 C4.37155634,4.56822072 4.05031767,4.3537648 3.56294537,4.3193907 Z" id="Combined-Shape" fill="#000000"></path>
                <ellipse id="Oval-9" fill="#000000" cx="5.9263658" cy="4.11540526" rx="1" ry="1"></ellipse>
            </g>
            <g id="Graphics/Characters/woman_4" transform="translate(491.000000, 3.000000)">
                <path d="M2.79970591,19.88388 C3.33170457,19.8650602 3.70421245,19.5534407 3.91722956,18.9490216 C3.95380929,18.929814 3.5798901,16.8441707 3.62232779,16.808121 C3.78605577,16.6690385 4.39288369,16.6147348 4.42992874,16.9556906 C4.4345667,16.9983775 4.43027214,18.9674205 4.42992874,19.0278667 C4.42739728,19.4734622 4.46698556,19.9079911 4.54869359,20.3314535 C4.48851701,20.3715842 4.44689904,20.3715842 4.42383968,20.3314535 C4.40078033,20.2913228 4.32494348,20.0853781 4.19632914,19.7136193 L3.91824661,20.3268469 L2.695962,20.3268469 L2.79970591,19.88388 Z" id="Rectangle-23" fill="#000000"></path>
                <path d="M4.76573465,19.7627421 C5.28111495,19.8289299 5.64531365,19.5598142 5.85833076,18.9553951 C5.89452504,18.9363899 5.61725971,16.7528074 5.65921966,16.717209 C5.82711349,16.5747693 6.52469105,16.3411056 6.55547168,16.7168456 C6.55852333,16.7540972 6.37130899,18.9851204 6.37102994,19.0342403 C6.36849848,19.4798357 6.40808676,19.9143646 6.48979478,20.337827 C6.4296182,20.3779577 6.38800024,20.3779577 6.36494088,20.337827 C6.34188153,20.2976963 6.26604468,20.0917516 6.13743034,19.7199928 L5.85934781,20.3332204 L5.31527933,20.3332204 L4.66199073,20.205709 L4.76573465,19.7627421 Z" id="Rectangle-23" fill="#000000" transform="translate(5.608750, 18.440778) rotate(-11.000000) translate(-5.608750, -18.440778) "></path>
                <path d="M3.7021322,11.7344783 C4.11241515,11.1515837 5.30367181,10.999634 6.0618368,11.7255736 C6.44568109,13.7447699 6.17167264,15.5614889 6.9247856,17.1714292 C5.25507592,17.3326849 3.90115668,17.2090817 2.86302788,16.8006194 C3.25713948,14.5247997 3.53684092,12.836086 3.7021322,11.7344783 Z" id="Torso" fill="#1A2F57" transform="translate(4.893907, 14.238633) rotate(-11.000000) translate(-4.893907, -14.238633) "></path>
                <path d="M3.81292806,6.76667988 C4.17905398,6.06028609 5.24210068,5.87614239 5.91866756,6.75588859 C6.26120029,9.20289674 6.01668222,11.4045283 6.68874079,13.3555705 C5.19873496,13.5509918 3.99053237,13.4012005 3.06413302,12.9061964 C3.41582804,10.1481933 3.66542639,8.10168782 3.81292806,6.76667988 Z" id="Torso" fill="#D2C69F" transform="translate(4.876437, 9.801396) rotate(5.000000) translate(-4.876437, -9.801396) "></path>
                <path d="M5.04277106,11.7236367 C5.56758056,12.021927 5.66484453,11.7985597 5.66484453,11.5198068 C5.66484453,11.2410539 5.29529335,11.01508 4.83942886,11.01508 C4.38356436,11.01508 4.01401318,11.2410539 4.01401318,11.5198068 C4.01401318,11.7985597 4.51796155,11.4253465 5.04277106,11.7236367 Z" id="Hand" fill="#633D1D" transform="translate(4.839429, 11.440201) rotate(-427.000000) translate(-4.839429, -11.440201) "></path>
                <path d="M6.15768155,7.29256272 C6.15626524,6.88053366 6.88161535,6.70900866 6.88161535,7.29256272 C6.88161535,7.68159877 6.78181161,8.7175824 6.58220414,10.4005136 L4.97651462,10.985546 C4.75458978,11.0664042 4.50913561,10.9520471 4.42827738,10.7301223 C4.42622975,10.7245023 4.42430024,10.71884 4.42249013,10.7131391 L4.42249013,10.7131391 C4.34768659,10.4775464 4.47627807,10.2256079 4.71095398,10.147976 L6.03603577,9.70963302 C6.11807717,8.37293887 6.15862577,7.56724877 6.15768155,7.29256272 Z" id="Arm" fill="#D2C69F" transform="translate(5.587079, 9.024379) rotate(-379.000000) translate(-5.587079, -9.024379) "></path>
                <ellipse id="Head" fill="#633D1D" cx="4.63182898" cy="5.30801149" rx="1.37767221" ry="1.57639581"></ellipse>
                <path d="M3.56294537,4.3193907 C3.81547889,3.96093601 4.20237745,3.73161567 4.63608467,3.73161567 C5.0398182,3.73161567 5.52868946,3.75439737 5.78066952,4.07101814 C6.00356556,4.35109393 6.01375688,4.89936256 6.01375688,5.30801149 C6.01375688,5.74236834 5.86022997,6.13569468 5.61188177,6.42081684 C5.39804326,5.68019162 5.20593263,5.29478264 5.03554987,5.2645899 C4.86335499,5.23407605 4.78108374,5.31074064 4.78873609,5.49458368 L4.53853786,5.49458368 C4.59674372,5.37721707 4.59278489,5.19994199 4.52666138,4.96275844 C4.37155634,4.56822072 4.05031767,4.3537648 3.56294537,4.3193907 Z" id="Combined-Shape" fill="#000000"></path>
                <ellipse id="Oval-9" fill="#000000" cx="5.9263658" cy="4.11540526" rx="1" ry="1"></ellipse>
            </g>
            <g id="Graphics/Characters/woman_3" transform="translate(637.000000, 1.000000)">
                <path d="M5.13544808,14.0721261 C5.43617503,13.1254271 6.3204997,13.1136369 7.7884221,14.0367557 C8.00760871,14.2281007 8.11639617,14.534221 8.11478447,14.9551166 C8.11317277,15.3760122 8.00156343,15.8068255 7.77995646,16.2475566 L7.4628188,17.9754539 C7.44117437,18.200482 7.43311302,18.3853506 7.43863477,18.5300595 C7.18378446,18.9435315 6.87927164,18.9970622 6.52509633,18.6906516 L6.4457044,17.8728276 L6.20832719,15.4714223 L5.36317737,17.7919974 L5.1054383,18.3167672 L4.44409067,17.6924407 C4.60426867,16.2255966 4.83472114,15.0188251 5.13544808,14.0721261 Z" id="Legs" fill="#578DCD" transform="translate(6.279446, 16.119715) rotate(-5.000000) translate(-6.279446, -16.119715) "></path>
                <path d="M5.98328302,21.0261441 C6.36214002,21.1348079 6.65807708,20.8731935 6.87109419,20.2413008 C6.90749212,20.2213199 6.99359665,17.4490584 7.05458858,17.4142006 C7.28108262,17.2847556 7.98378969,17.7404882 8.0805671,18.0435881 C8.09761805,18.0969904 7.71674677,20.2847319 7.71628393,20.3699048 C7.71375247,20.8357546 7.71077221,21.2549094 7.70734316,21.6273692 C7.64716658,21.669324 7.60554861,21.669324 7.58248926,21.6273692 C7.5594299,21.5854144 7.48359306,21.3701085 7.35497871,20.9814517 L7.07689618,21.6225532 L6.53282771,21.6225532 L5.87953911,21.4892458 L5.98328302,21.0261441 Z" id="Rectangle-23" fill="#000000" transform="translate(6.980331, 19.525220) rotate(-16.000000) translate(-6.980331, -19.525220) "></path>
                <path d="M3.48518354,21.1960673 C3.86404054,21.3047311 4.1599776,21.0431167 4.37299471,20.411224 C4.40939264,20.3912431 4.49549716,17.6189816 4.5564891,17.5841238 C4.78298314,17.4546789 5.4856902,17.9104114 5.58246762,18.2135113 C5.59951857,18.2669136 5.21864729,20.4546551 5.21818445,20.539828 C5.21565299,21.0056778 5.21267273,21.4248326 5.20924368,21.7972924 C5.1490671,21.8392472 5.10744913,21.8392472 5.08438977,21.7972924 C5.06133042,21.7553376 4.98549357,21.5400317 4.85687923,21.1513749 L4.5787967,21.7924764 L4.03472822,21.7924764 L3.38143963,21.659169 L3.48518354,21.1960673 Z" id="Rectangle-23" fill="#000000" transform="translate(4.482232, 19.695143) rotate(-4.000000) translate(-4.482232, -19.695143) "></path>
                <path d="M5.5029736,12.7616861 C6.03069734,12.5374632 5.92013878,12.3266855 5.71169923,12.1574011 C5.50325969,11.9881166 5.11974534,12.1363324 4.85509597,12.4884504 C4.59044659,12.8405683 4.54487952,13.2632484 4.75331907,13.4325328 C4.96175862,13.6018172 4.97524985,12.985909 5.5029736,12.7616861 Z" id="Hand" fill="#F6E6CA" transform="translate(5.253579, 12.774489) rotate(-17.000000) translate(-5.253579, -12.774489) "></path>
                <path d="M5.45312587,8.74264844 C5.81925179,8.07682804 6.71332679,7.86283322 7.38989367,8.69204913 C8.06958931,10.1100792 8.30570737,12.5357965 7.78534735,14.4251515 C6.29534152,14.6093484 5.23636499,14.4332074 4.60841778,13.8967285 C5.28986759,12.6906544 5.57143696,10.9726277 5.45312587,8.74264844 Z" id="Torso" fill="#1A2F57" transform="translate(6.338271, 11.324070) rotate(-4.000000) translate(-6.338271, -11.324070) "></path>
                <path d="M7.47916738,14.0710869 C8.00689112,13.846864 7.89633256,13.6360864 7.68789301,13.4668019 C7.47945347,13.2975175 7.09593912,13.4457333 6.83128975,13.7978512 C6.56664037,14.1499691 6.5210733,14.5726492 6.72951285,14.7419336 C6.9379524,14.9112181 6.95144363,14.2953099 7.47916738,14.0710869 Z" id="Hand" fill="#F6E6CA" transform="translate(7.229773, 14.083890) rotate(-33.000000) translate(-7.229773, -14.083890) "></path>
                <path d="M6.43722224,9.22116948 C6.2060298,8.92732057 6.66528774,8.42960569 6.99118911,8.84681925 C7.20845668,9.12496162 7.71065786,9.91724999 8.49779264,11.2236844 L8.15985302,13.6533924 C8.15400575,13.6614866 7.38370777,13.7341364 7.38975046,13.7262913 L7.61101427,11.1703439 C6.92728121,10.1722467 6.59135053,9.41706875 6.43722224,9.22116948 Z" id="Arm" fill="#1A2F57" transform="translate(7.436179, 11.206903) rotate(15.000000) translate(-7.436179, -11.206903) "></path>
                <ellipse id="Head" fill="#F6E6CA" transform="translate(5.951856, 7.267789) rotate(-5.000000) translate(-5.951856, -7.267789) " cx="5.95185615" cy="7.26778903" rx="1.24703088" ry="1.49382716"></ellipse>
                <path d="M4.97624703,6.35737974 C5.57663233,6.41707508 6.23157881,6.93079439 6.94108647,7.89853767 C7.05275581,7.96209772 7.17297554,7.88958815 7.30174564,7.68100896 C7.40436842,7.19470701 7.40040959,6.80287998 7.28986915,6.50552789 C7.12405849,6.05949974 7.02285821,5.83448597 6.54840394,5.6545313 C6.07394966,5.47457664 5.73941768,5.51363203 5.38928848,5.76564241 C5.15586902,5.93364934 5.01818853,6.13089511 4.97624703,6.35737974 Z" id="Path-4" fill="#D0B174"></path>
                <path d="M7.28715955,7.24691358 C7.32070476,7.57819121 7.3448024,7.80340533 7.35945245,7.92255594 C7.37707835,8.06590947 7.27457388,8.17935519 7.28946873,8.26289312 C7.31284971,8.39402556 7.45713021,8.51276432 7.48478056,8.61910941 C7.52260253,8.76457528 7.44565378,8.88685185 7.49146398,8.98593913 C7.5497916,9.1121015 7.73476197,9.2323709 7.80884541,9.34674731 C7.87795583,9.45344595 7.83515718,9.55501622 7.91797913,9.65145811 C7.99987853,9.74682573 8.20724666,9.83717859 8.30255382,9.92251668 C8.2275925,10.3856679 8.2062436,10.7852945 8.2385071,11.1213965 C7.83175847,11.0530874 7.55825163,10.9491267 7.41798659,10.8095144 C7.28871023,10.6808397 7.1832598,10.5123509 7.10163531,10.3040482 C7.05340512,10.205678 6.89329698,10.1008403 6.85884055,9.98953492 C6.81589509,9.85080728 6.90241282,9.70203265 6.88086405,9.54321105 C6.86734005,9.44353472 6.73926509,9.33990107 6.73416884,9.23231011 C6.72842959,9.11114444 6.84679948,8.98495987 6.85174879,8.85375642 C6.8562541,8.73432328 6.74642298,8.61073134 6.75978511,8.48298062 C6.77715175,8.31694422 6.85962102,8.05208334 7.00719292,7.68839798 L7.28715955,7.24691358 Z" id="Rectangle" fill="#D0B174"></path>
            </g>
            <g id="Graphics/Characters/woman_3" transform="translate(352.000000, 12.614713) scale(-1, 1) translate(-352.000000, -12.614713) translate(347.000000, 1.000000)">
                <path d="M5.13544808,14.0721261 C5.43617503,13.1254271 6.3204997,13.1136369 7.7884221,14.0367557 C8.00760871,14.2281007 8.11639617,14.534221 8.11478447,14.9551166 C8.11317277,15.3760122 8.00156343,15.8068255 7.77995646,16.2475566 L7.4628188,17.9754539 C7.44117437,18.200482 7.43311302,18.3853506 7.43863477,18.5300595 C7.18378446,18.9435315 6.87927164,18.9970622 6.52509633,18.6906516 L6.4457044,17.8728276 L6.20832719,15.4714223 L5.36317737,17.7919974 L5.1054383,18.3167672 L4.44409067,17.6924407 C4.60426867,16.2255966 4.83472114,15.0188251 5.13544808,14.0721261 Z" id="Legs" fill="#578DCD" transform="translate(6.279446, 16.119715) rotate(-5.000000) translate(-6.279446, -16.119715) "></path>
                <path d="M5.98328302,21.0261441 C6.36214002,21.1348079 6.65807708,20.8731935 6.87109419,20.2413008 C6.90749212,20.2213199 6.99359665,17.4490584 7.05458858,17.4142006 C7.28108262,17.2847556 7.98378969,17.7404882 8.0805671,18.0435881 C8.09761805,18.0969904 7.71674677,20.2847319 7.71628393,20.3699048 C7.71375247,20.8357546 7.71077221,21.2549094 7.70734316,21.6273692 C7.64716658,21.669324 7.60554861,21.669324 7.58248926,21.6273692 C7.5594299,21.5854144 7.48359306,21.3701085 7.35497871,20.9814517 L7.07689618,21.6225532 L6.53282771,21.6225532 L5.87953911,21.4892458 L5.98328302,21.0261441 Z" id="Rectangle-23" fill="#000000" transform="translate(6.980331, 19.525220) rotate(-16.000000) translate(-6.980331, -19.525220) "></path>
                <path d="M3.48518354,21.1960673 C3.86404054,21.3047311 4.1599776,21.0431167 4.37299471,20.411224 C4.40939264,20.3912431 4.49549716,17.6189816 4.5564891,17.5841238 C4.78298314,17.4546789 5.4856902,17.9104114 5.58246762,18.2135113 C5.59951857,18.2669136 5.21864729,20.4546551 5.21818445,20.539828 C5.21565299,21.0056778 5.21267273,21.4248326 5.20924368,21.7972924 C5.1490671,21.8392472 5.10744913,21.8392472 5.08438977,21.7972924 C5.06133042,21.7553376 4.98549357,21.5400317 4.85687923,21.1513749 L4.5787967,21.7924764 L4.03472822,21.7924764 L3.38143963,21.659169 L3.48518354,21.1960673 Z" id="Rectangle-23" fill="#000000" transform="translate(4.482232, 19.695143) rotate(-4.000000) translate(-4.482232, -19.695143) "></path>
                <path d="M5.5029736,12.7616861 C6.03069734,12.5374632 5.92013878,12.3266855 5.71169923,12.1574011 C5.50325969,11.9881166 5.11974534,12.1363324 4.85509597,12.4884504 C4.59044659,12.8405683 4.54487952,13.2632484 4.75331907,13.4325328 C4.96175862,13.6018172 4.97524985,12.985909 5.5029736,12.7616861 Z" id="Hand" fill="#F6E6CA" transform="translate(5.253579, 12.774489) rotate(-17.000000) translate(-5.253579, -12.774489) "></path>
                <path d="M5.45312587,8.74264844 C5.81925179,8.07682804 6.71332679,7.86283322 7.38989367,8.69204913 C8.06958931,10.1100792 8.30570737,12.5357965 7.78534735,14.4251515 C6.29534152,14.6093484 5.23636499,14.4332074 4.60841778,13.8967285 C5.28986759,12.6906544 5.57143696,10.9726277 5.45312587,8.74264844 Z" id="Torso" fill="#1A2F57" transform="translate(6.338271, 11.324070) rotate(-4.000000) translate(-6.338271, -11.324070) "></path>
                <path d="M7.47916738,14.0710869 C8.00689112,13.846864 7.89633256,13.6360864 7.68789301,13.4668019 C7.47945347,13.2975175 7.09593912,13.4457333 6.83128975,13.7978512 C6.56664037,14.1499691 6.5210733,14.5726492 6.72951285,14.7419336 C6.9379524,14.9112181 6.95144363,14.2953099 7.47916738,14.0710869 Z" id="Hand" fill="#F6E6CA" transform="translate(7.229773, 14.083890) rotate(-33.000000) translate(-7.229773, -14.083890) "></path>
                <path d="M6.43722224,9.22116948 C6.2060298,8.92732057 6.66528774,8.42960569 6.99118911,8.84681925 C7.20845668,9.12496162 7.71065786,9.91724999 8.49779264,11.2236844 L8.15985302,13.6533924 C8.15400575,13.6614866 7.38370777,13.7341364 7.38975046,13.7262913 L7.61101427,11.1703439 C6.92728121,10.1722467 6.59135053,9.41706875 6.43722224,9.22116948 Z" id="Arm" fill="#1A2F57" transform="translate(7.436179, 11.206903) rotate(15.000000) translate(-7.436179, -11.206903) "></path>
                <ellipse id="Head" fill="#F6E6CA" transform="translate(5.951856, 7.267789) rotate(-5.000000) translate(-5.951856, -7.267789) " cx="5.95185615" cy="7.26778903" rx="1.24703088" ry="1.49382716"></ellipse>
                <path d="M4.97624703,6.35737974 C5.57663233,6.41707508 6.23157881,6.93079439 6.94108647,7.89853767 C7.05275581,7.96209772 7.17297554,7.88958815 7.30174564,7.68100896 C7.40436842,7.19470701 7.40040959,6.80287998 7.28986915,6.50552789 C7.12405849,6.05949974 7.02285821,5.83448597 6.54840394,5.6545313 C6.07394966,5.47457664 5.73941768,5.51363203 5.38928848,5.76564241 C5.15586902,5.93364934 5.01818853,6.13089511 4.97624703,6.35737974 Z" id="Path-4" fill="#D0B174"></path>
                <path d="M7.28715955,7.24691358 C7.32070476,7.57819121 7.3448024,7.80340533 7.35945245,7.92255594 C7.37707835,8.06590947 7.27457388,8.17935519 7.28946873,8.26289312 C7.31284971,8.39402556 7.45713021,8.51276432 7.48478056,8.61910941 C7.52260253,8.76457528 7.44565378,8.88685185 7.49146398,8.98593913 C7.5497916,9.1121015 7.73476197,9.2323709 7.80884541,9.34674731 C7.87795583,9.45344595 7.83515718,9.55501622 7.91797913,9.65145811 C7.99987853,9.74682573 8.20724666,9.83717859 8.30255382,9.92251668 C8.2275925,10.3856679 8.2062436,10.7852945 8.2385071,11.1213965 C7.83175847,11.0530874 7.55825163,10.9491267 7.41798659,10.8095144 C7.28871023,10.6808397 7.1832598,10.5123509 7.10163531,10.3040482 C7.05340512,10.205678 6.89329698,10.1008403 6.85884055,9.98953492 C6.81589509,9.85080728 6.90241282,9.70203265 6.88086405,9.54321105 C6.86734005,9.44353472 6.73926509,9.33990107 6.73416884,9.23231011 C6.72842959,9.11114444 6.84679948,8.98495987 6.85174879,8.85375642 C6.8562541,8.73432328 6.74642298,8.61073134 6.75978511,8.48298062 C6.77715175,8.31694422 6.85962102,8.05208334 7.00719292,7.68839798 L7.28715955,7.24691358 Z" id="Rectangle" fill="#D0B174"></path>
            </g>
            <g id="Graphics/Characters/woman_2" transform="translate(179.000000, 0.000000)">
                <path d="M5.60871191,13.8926416 C5.93951155,12.7488291 6.91226869,12.7345841 8.52698333,13.8499067 L8.88598193,14.9594808 L8.51767113,16.5210215 L8.1688197,18.6086868 C8.14501082,18.8805684 8.13614334,19.1039286 8.14221727,19.2787676 C7.86188192,19.7783293 7.52691782,19.8430057 7.13732498,19.4727968 L7.04999386,18.4846925 L6.78887893,15.5832873 L5.85921412,18.3870326 L5.57570115,19.0210655 L4.84821876,18.266747 C5.02441455,16.4944893 5.27791227,15.0364542 5.60871191,13.8926416 Z" id="Legs" fill="#000000" transform="translate(6.867100, 16.366562) rotate(-5.000000) translate(-6.867100, -16.366562) "></path>
                <path d="M6.58161132,21.9403243 C6.99835403,22.0537126 7.32388479,21.7807237 7.55820361,21.1213574 C7.59824133,21.1005078 7.69295631,18.2077131 7.76004744,18.1713397 C8.00919088,18.0362668 8.78216865,18.5118138 8.88862382,18.8280919 C8.90737986,18.8838161 8.48842145,21.1666768 8.48791233,21.2555528 C8.48512772,21.7416569 8.48184943,22.1790359 8.47807748,22.5676896 C8.41188324,22.6114686 8.36610347,22.6114686 8.34073818,22.5676896 C8.31537289,22.5239107 8.23195236,22.2992437 8.09047658,21.8936887 L7.7845858,22.5626642 L7.18611048,22.5626642 L6.46749302,22.4235609 L6.58161132,21.9403243 Z" id="Rectangle-23" fill="#502E05" transform="translate(7.678364, 20.374143) rotate(-16.000000) translate(-7.678364, -20.374143) "></path>
                <path d="M3.83370189,22.1176354 C4.25044459,22.2310238 4.57597536,21.9580348 4.81029418,21.2986686 C4.8503319,21.2778189 4.94504688,18.3850243 5.01213801,18.3486509 C5.26128145,18.2135779 6.03425922,18.6891249 6.14071438,19.0054031 C6.15947043,19.0611273 5.74051202,21.3439879 5.7400029,21.432864 C5.73721829,21.9189681 5.73394,22.356347 5.73016804,22.7450008 C5.66397381,22.7887797 5.61819404,22.7887797 5.59282875,22.7450008 C5.56746346,22.7012218 5.48404293,22.4765549 5.34256715,22.0709999 L5.03667637,22.7399754 L4.43820105,22.7399754 L3.71958359,22.600872 L3.83370189,22.1176354 Z" id="Rectangle-23" fill="#502E05" transform="translate(4.930455, 20.551454) rotate(-4.000000) translate(-4.930455, -20.551454) "></path>
                <path d="M9.18866288,12.9300686 C9.769159,12.6960968 9.64754458,12.4761549 9.41826108,12.2995103 C9.18897758,12.1228657 8.7671118,12.2775256 8.47599749,12.644953 C8.18488318,13.0123804 8.1347594,13.4534379 8.3640429,13.6300825 C8.5933264,13.8067272 8.60816676,13.1640404 9.18866288,12.9300686 Z" id="Hand" fill="#D0B174" transform="translate(8.914329, 12.943428) rotate(-72.000000) translate(-8.914329, -12.943428) "></path>
                <path d="M5.94524858,7.503074 C6.34798709,6.65046118 7.33146959,6.37643124 8.07569316,7.43827932 C8.82335836,9.25413027 9.08308823,12.3603698 8.51069221,14.7797735 C6.87168579,15.0156458 5.70681162,14.7900894 5.01606968,14.1031042 C5.76566448,12.5586723 6.07539078,10.3586622 5.94524858,7.503074 Z" id="Torso" fill="#959088" transform="translate(6.918908, 10.808700) rotate(-4.000000) translate(-6.918908, -10.808700) "></path>
                <path d="M4.3814474,13.26068 C4.96194351,13.0267082 4.84032909,12.8067663 4.61104559,12.6301217 C4.38176209,12.453477 3.95989631,12.608137 3.668782,12.9755644 C3.37766769,13.3429918 3.32754392,13.7840493 3.55682742,13.9606939 C3.78611092,14.1373385 3.80095128,13.4946517 4.3814474,13.26068 Z" id="Hand" fill="#D0B174" transform="translate(4.107114, 13.274040) rotate(-8.000000) translate(-4.107114, -13.274040) "></path>
                <path d="M4.70226788,8.09514623 C4.4479562,7.75245634 4.95313993,7.17201568 5.31163143,7.6585748 C5.55062577,7.98294755 6.10304706,8.90692312 6.96889532,10.4305015 L6.59716174,13.2640543 C6.59072974,13.2734938 5.74340196,13.3582188 5.75004893,13.3490698 L5.99343911,10.3682953 C5.24133275,9.20430319 4.871809,8.32360616 4.70226788,8.09514623 Z" id="Arm" fill="#959088" transform="translate(5.801120, 10.410931) rotate(40.000000) translate(-5.801120, -10.410931) "></path>
                <ellipse id="Head" fill="#D0B174" transform="translate(6.236245, 5.915887) rotate(-5.000000) translate(-6.236245, -5.915887) " cx="6.23624477" cy="5.91588654" rx="1.37173397" ry="1.55877617"></ellipse>
                <path d="M5.16738121,4.96646202 C5.87841692,5.64450265 6.59885805,6.18055758 7.32870459,6.57462682 C7.45154087,6.64095035 7.58378256,6.56528819 7.72542967,6.34764034 C7.83831474,5.84019483 7.83396002,5.43133184 7.71236554,5.1210514 C7.52997381,4.65563072 7.41865351,4.42083374 6.8967538,4.23305496 C6.3748541,4.04527618 6.00686892,4.08602963 5.62172681,4.34899699 C5.36496539,4.52430856 5.21351686,4.73013024 5.16738121,4.96646202 Z" id="Path-4" fill="#000000"></path>
                <path d="M7.7092119,5.88644509 C8.34606465,6.73477839 8.71837588,7.66542295 8.8261456,8.67837876 C8.68873049,9.0108337 8.66524669,9.42783537 8.7556942,9.92938378 C8.15790361,9.93190585 7.74105062,9.64761079 7.50513523,9.07649861 C7.70628995,8.34117751 7.67166107,7.43138613 7.4012486,6.34712447 L7.7092119,5.88644509 Z" id="Rectangle" fill="#000000"></path>
            </g>
            <g id="Graphics/Characters/woman_2" transform="translate(407.000000, 3.000000)">
                <path d="M4.58894611,11.5772014 C4.85960036,10.6240242 5.65549257,10.6121534 6.97662272,11.5415889 L7.27034885,12.466234 L6.96900365,13.767518 L6.68357975,15.507239 C6.66409976,15.733807 6.65684455,15.9199405 6.66181413,16.0656397 C6.43244885,16.4819411 6.15838731,16.5358381 5.83962953,16.2273307 L5.7681768,15.4039105 L5.5545373,12.9860727 L4.79390246,15.3225272 L4.56193731,15.8508879 L3.96672444,15.2222892 C4.11088463,13.7454077 4.31829186,12.5303785 4.58894611,11.5772014 Z" id="Legs" fill="#000000" transform="translate(5.618537, 13.638802) rotate(-5.000000) translate(-5.618537, -13.638802) "></path>
                <path d="M5.38495472,18.2836035 C5.72592602,18.3780939 5.99226937,18.1506031 6.18398477,17.6011312 C6.21674291,17.5837565 6.29423698,15.1730943 6.34912973,15.1427831 C6.55297436,15.0302223 7.18541072,15.4265115 7.27251039,15.6900766 C7.28785625,15.7365134 6.94507209,17.6388973 6.94465554,17.7129607 C6.94237722,18.1180475 6.93969499,18.4825299 6.93660884,18.806408 C6.88244992,18.8428905 6.84499375,18.8428905 6.82424033,18.806408 C6.80348691,18.7699256 6.73523375,18.5827031 6.61948084,18.2447406 L6.36920657,18.8022202 L5.87954494,18.8022202 L5.2915852,18.6863007 L5.38495472,18.2836035 Z" id="Rectangle-23" fill="#502E05" transform="translate(6.282298, 16.978452) rotate(-16.000000) translate(-6.282298, -16.978452) "></path>
                <path d="M3.13666518,18.4313629 C3.47763649,18.5258532 3.74397984,18.2983624 3.93569524,17.7488905 C3.96845337,17.7315158 4.04594745,15.3208536 4.10084019,15.2905424 C4.30468483,15.1779816 4.93712118,15.5742708 5.02422086,15.8378359 C5.03956671,15.8842727 4.69678256,17.7866566 4.69636601,17.86072 C4.69408769,18.2658068 4.69140546,18.6302892 4.68831931,18.9541673 C4.63416039,18.9906498 4.59670422,18.9906498 4.5759508,18.9541673 C4.55519738,18.9176849 4.48694421,18.7304624 4.37119131,18.3924999 L4.12091703,18.9499795 L3.6312554,18.9499795 L3.04329566,18.83406 L3.13666518,18.4313629 Z" id="Rectangle-23" fill="#502E05" transform="translate(4.034008, 17.126212) rotate(-4.000000) translate(-4.034008, -17.126212) "></path>
                <path d="M7.5179969,10.7750572 C7.99294827,10.5800807 7.89344556,10.3967958 7.70584997,10.2495919 C7.51825438,10.1023881 7.17309147,10.2312714 6.93490703,10.5374609 C6.6967226,10.8436503 6.65571224,11.2111983 6.84330783,11.3584021 C7.03090342,11.505606 7.04304553,10.9700336 7.5179969,10.7750572 Z" id="Hand" fill="#D0B174" transform="translate(7.293542, 10.786190) rotate(-72.000000) translate(-7.293542, -10.786190) "></path>
                <path d="M4.8642943,6.25256167 C5.19380762,5.54205098 5.99847512,5.3136927 6.60738531,6.1985661 C7.21911139,7.71177522 7.43161765,10.3003082 6.96329363,12.3164779 C5.62228838,12.5130382 4.6692095,12.3250745 4.10405701,11.7525868 C4.71736185,10.4655602 4.97077428,8.63221851 4.8642943,6.25256167 Z" id="Torso" fill="#959088" transform="translate(5.660925, 9.007250) rotate(-4.000000) translate(-5.660925, -9.007250) "></path>
                <path d="M3.5848206,11.0505666 C4.05977197,10.8555902 3.96026926,10.6723053 3.77267367,10.5251014 C3.58507808,10.3778975 3.23991517,10.5067809 3.00173073,10.8129703 C2.76354629,11.1191598 2.72253593,11.4867077 2.91013152,11.6339116 C3.09772711,11.7811155 3.10986923,11.2455431 3.5848206,11.0505666 Z" id="Hand" fill="#D0B174" transform="translate(3.360366, 11.061700) rotate(-8.000000) translate(-3.360366, -11.061700) "></path>
                <path d="M3.84731008,6.74595519 C3.63923689,6.46038029 4.05256903,5.97667974 4.34588026,6.38214567 C4.54142108,6.65245629 4.99340214,7.42243594 5.70182344,8.6920846 L5.39767779,11.0533785 C5.39241525,11.0612449 4.69914706,11.131849 4.70458548,11.1242248 L4.90372291,8.64024607 C4.28836316,7.67025266 3.98602554,6.93633846 3.84731008,6.74595519 Z" id="Arm" fill="#959088" transform="translate(4.746371, 8.675775) rotate(40.000000) translate(-4.746371, -8.675775) "></path>
                <ellipse id="Head" fill="#D0B174" transform="translate(5.102382, 4.929905) rotate(-5.000000) translate(-5.102382, -4.929905) " cx="5.10238209" cy="4.92990545" rx="1.12232779" ry="1.29898014"></ellipse>
                <path d="M4.22785735,4.13871835 C4.80961384,4.70375221 5.39906567,5.15046465 5.99621285,5.47885568 C6.09671526,5.53412529 6.20491301,5.47107349 6.3208061,5.28970029 C6.4131666,4.86682902 6.40960366,4.52610987 6.31011726,4.26754283 C6.16088766,3.87969227 6.06980741,3.68402812 5.64279857,3.5275458 C5.21578972,3.37106348 4.91471094,3.40502469 4.59959466,3.62416416 C4.38951714,3.77025714 4.2656047,3.9417752 4.22785735,4.13871835 Z" id="Path-4" fill="#000000"></path>
                <path d="M6.30753701,4.90537091 C6.82859835,5.61231533 7.13321663,6.38785246 7.22139185,7.2319823 C7.10896131,7.50902808 7.08974729,7.85652948 7.1637498,8.27448648 C6.67464841,8.27658821 6.33358687,8.03967566 6.14056519,7.56374884 C6.30514632,6.95098126 6.2768136,6.19282178 6.05556704,5.28927039 L6.30753701,4.90537091 Z" id="Rectangle" fill="#000000"></path>
            </g>
        </g>
    </g>
</svg>