<?xml version="1.0" encoding="UTF-8"?>
<svg width="920px" height="54px" viewBox="0 0 920 54" version="1.1" xmlns="http://www.w3.org/2000/svg" xmlns:xlink="http://www.w3.org/1999/xlink">
    <!-- Generator: sketchtool 48.2 (47327) - http://www.bohemiancoding.com/sketch -->
    <title>4474B3B6-871B-41D7-B862-9F7946A816D3</title>
    <desc>Created with sketchtool.</desc>
    <defs></defs>
    <g id="SiteHeader" stroke="none" stroke-width="1" fill="none" fill-rule="evenodd" transform="translate(-90.000000, -191.000000)">
        <g id="trees" transform="translate(90.000000, 191.000000)" fill="#AFCE73">
            <g id="Graphics/Buildings/Tree2" transform="translate(315.000000, 19.000000)">
                <ellipse id="Oval" cx="8.85057471" cy="6.59504132" rx="6.55172414" ry="6.59504132"></ellipse>
                <ellipse id="Oval" cx="13.4482759" cy="8.90909091" rx="6.55172414" ry="6.59504132"></ellipse>
                <ellipse id="Oval" cx="8.16091954" cy="13.3057851" rx="4.25287356" ry="4.28099174"></ellipse>
                <ellipse id="Oval" cx="4.25287356" cy="8.90909091" rx="4.25287356" ry="4.28099174"></ellipse>
                <rect id="Rectangle-6" x="9.88505747" y="4.16528926" width="1.83908046" height="23.8347107"></rect>
            </g>
            <g id="Graphics/Buildings/Tree2" transform="translate(425.000000, 6.000000)">
                <ellipse id="Oval" cx="13.2758621" cy="9.89256198" rx="9.82758621" ry="9.89256198"></ellipse>
                <ellipse id="Oval" cx="20.1724138" cy="13.3636364" rx="9.82758621" ry="9.89256198"></ellipse>
                <ellipse id="Oval" cx="12.2413793" cy="19.9586777" rx="6.37931034" ry="6.4214876"></ellipse>
                <ellipse id="Oval" cx="6.37931034" cy="13.3636364" rx="6.37931034" ry="6.4214876"></ellipse>
                <rect id="Rectangle-6" x="14.8275862" y="6.24793388" width="2.75862069" height="35.7520661"></rect>
            </g>
            <g id="Graphics/Buildings/Tree1">
                <ellipse id="Oval" cx="11.5057471" cy="11.9834437" rx="8.51724138" ry="8.87086093"></ellipse>
                <ellipse id="Oval" cx="17.4827586" cy="15.0960265" rx="8.51724138" ry="8.87086093"></ellipse>
                <ellipse id="Oval" cx="20.4712644" cy="5.75827815" rx="5.52873563" ry="5.75827815"></ellipse>
                <ellipse id="Oval" cx="5.52873563" cy="15.0960265" rx="5.52873563" ry="5.75827815"></ellipse>
                <rect id="Rectangle-6" x="12.5517241" y="11.8278146" width="3.28735632" height="35.1721854"></rect>
            </g>
            <g id="Graphics/Buildings/Tree1" transform="translate(894.000000, 7.000000)">
                <ellipse id="Oval" cx="11.5057471" cy="11.9834437" rx="8.51724138" ry="8.87086093"></ellipse>
                <ellipse id="Oval" cx="17.4827586" cy="15.0960265" rx="8.51724138" ry="8.87086093"></ellipse>
                <ellipse id="Oval" cx="20.4712644" cy="5.75827815" rx="5.52873563" ry="5.75827815"></ellipse>
                <ellipse id="Oval" cx="5.52873563" cy="15.0960265" rx="5.52873563" ry="5.75827815"></ellipse>
                <rect id="Rectangle-6" x="12.5517241" y="11.8278146" width="3.28735632" height="35.1721854"></rect>
            </g>
            <g id="Graphics/Buildings/Tree1" transform="translate(531.000000, 0.000000)">
                <ellipse id="Oval" cx="11.5057471" cy="11.9834437" rx="8.51724138" ry="8.87086093"></ellipse>
                <ellipse id="Oval" cx="17.4827586" cy="15.0960265" rx="8.51724138" ry="8.87086093"></ellipse>
                <ellipse id="Oval" cx="20.4712644" cy="5.75827815" rx="5.52873563" ry="5.75827815"></ellipse>
                <ellipse id="Oval" cx="5.52873563" cy="15.0960265" rx="5.52873563" ry="5.75827815"></ellipse>
                <rect id="Rectangle-6" x="12.5517241" y="11.8278146" width="3.28735632" height="35.1721854"></rect>
            </g>
            <g id="Graphics/Buildings/Tree1" transform="translate(741.000000, 10.000000)">
                <ellipse id="Oval" cx="8.85057471" cy="9.17880795" rx="6.55172414" ry="6.79470199"></ellipse>
                <ellipse id="Oval" cx="13.4482759" cy="11.5629139" rx="6.55172414" ry="6.79470199"></ellipse>
                <ellipse id="Oval" cx="15.7471264" cy="4.41059603" rx="4.25287356" ry="4.41059603"></ellipse>
                <ellipse id="Oval" cx="4.25287356" cy="11.5629139" rx="4.25287356" ry="4.41059603"></ellipse>
                <rect id="Rectangle-6" x="9.65517241" y="9.05960265" width="2.52873563" height="26.9403974"></rect>
            </g>
            <g id="Graphics/Buildings/Tree2" transform="translate(75.000000, 6.000000)">
                <ellipse id="Oval" cx="13.2758621" cy="9.89256198" rx="9.82758621" ry="9.89256198"></ellipse>
                <ellipse id="Oval" cx="20.1724138" cy="13.3636364" rx="9.82758621" ry="9.89256198"></ellipse>
                <ellipse id="Oval" cx="12.2413793" cy="19.9586777" rx="6.37931034" ry="6.4214876"></ellipse>
                <ellipse id="Oval" cx="6.37931034" cy="13.3636364" rx="6.37931034" ry="6.4214876"></ellipse>
                <rect id="Rectangle-6" x="14.8275862" y="6.24793388" width="2.75862069" height="35.7520661"></rect>
            </g>
            <g id="Graphics/Buildings/Tree2" transform="translate(245.000000, 19.000000)">
                <ellipse id="Oval" cx="8.85057471" cy="6.59504132" rx="6.55172414" ry="6.59504132"></ellipse>
                <ellipse id="Oval" cx="13.4482759" cy="8.90909091" rx="6.55172414" ry="6.59504132"></ellipse>
                <ellipse id="Oval" cx="8.16091954" cy="13.3057851" rx="4.25287356" ry="4.28099174"></ellipse>
                <ellipse id="Oval" cx="4.25287356" cy="8.90909091" rx="4.25287356" ry="4.28099174"></ellipse>
                <rect id="Rectangle-6" x="9.88505747" y="4.16528926" width="1.83908046" height="23.8347107"></rect>
            </g>
            <g id="Graphics/Buildings/tree3" transform="translate(226.000000, 2.000000)">
                <ellipse id="Oval" cx="12.2580645" cy="10.9285714" rx="7.35483871" ry="7.32857143"></ellipse>
                <ellipse id="Oval" cx="7.35483871" cy="7.32857143" rx="7.35483871" ry="7.32857143"></ellipse>
                <ellipse id="Oval" cx="19.2258065" cy="11.7" rx="4.77419355" ry="4.75714286"></ellipse>
                <ellipse id="Oval" cx="7.09677419" cy="13.5" rx="4.77419355" ry="4.75714286"></ellipse>
                <rect id="Rectangle-6" x="10.5806452" y="13.3714286" width="3.35483871" height="31.6285714"></rect>
            </g>
            <g id="Graphics/Buildings/Tree2" transform="translate(565.000000, 6.000000)">
                <ellipse id="Oval" cx="13.2758621" cy="9.89256198" rx="9.82758621" ry="9.89256198"></ellipse>
                <ellipse id="Oval" cx="20.1724138" cy="13.3636364" rx="9.82758621" ry="9.89256198"></ellipse>
                <ellipse id="Oval" cx="12.2413793" cy="19.9586777" rx="6.37931034" ry="6.4214876"></ellipse>
                <ellipse id="Oval" cx="6.37931034" cy="13.3636364" rx="6.37931034" ry="6.4214876"></ellipse>
                <rect id="Rectangle-6" x="14.8275862" y="6.24793388" width="2.75862069" height="35.7520661"></rect>
            </g>
            <g id="Graphics/Buildings/tree3" transform="translate(576.000000, 2.000000)">
                <ellipse id="Oval" cx="12.2580645" cy="10.9285714" rx="7.35483871" ry="7.32857143"></ellipse>
                <ellipse id="Oval" cx="7.35483871" cy="7.32857143" rx="7.35483871" ry="7.32857143"></ellipse>
                <ellipse id="Oval" cx="19.2258065" cy="11.7" rx="4.77419355" ry="4.75714286"></ellipse>
                <ellipse id="Oval" cx="7.09677419" cy="13.5" rx="4.77419355" ry="4.75714286"></ellipse>
                <rect id="Rectangle-6" x="10.5806452" y="13.3714286" width="3.35483871" height="31.6285714"></rect>
            </g>
            <g id="Graphics/Buildings/tree4" transform="translate(323.000000, 7.000000)">
                <ellipse id="Oval" cx="12.8333333" cy="9.4214876" rx="9.5" ry="9.4214876"></ellipse>
                <ellipse id="Oval" cx="11.5" cy="16.0330579" rx="9.5" ry="9.4214876"></ellipse>
                <ellipse id="Oval" cx="23.8333333" cy="11.0743802" rx="6.16666667" ry="6.11570248"></ellipse>
                <ellipse id="Oval" cx="6.16666667" cy="12.7272727" rx="6.16666667" ry="6.11570248"></ellipse>
                <rect id="Rectangle-6" x="12.3333333" y="5.95041322" width="2.66666667" height="34.0495868"></rect>
            </g>
        </g>
    </g>
</svg>